%TF.GenerationSoftware,KiCad,Pcbnew,8.0.3*%
%TF.CreationDate,2024-07-30T16:10:22+10:00*%
%TF.ProjectId,colecovision_controller,636f6c65-636f-4766-9973-696f6e5f636f,rev?*%
%TF.SameCoordinates,Original*%
%TF.FileFunction,Drillmap*%
%TF.FilePolarity,Positive*%
%FSLAX45Y45*%
G04 Gerber Fmt 4.5, Leading zero omitted, Abs format (unit mm)*
G04 Created by KiCad (PCBNEW 8.0.3) date 2024-07-30 16:10:22*
%MOMM*%
%LPD*%
G01*
G04 APERTURE LIST*
%ADD10C,0.101600*%
%ADD11C,0.200000*%
%ADD12C,0.100000*%
G04 APERTURE END LIST*
D10*
X19939000Y-13093700D02*
X8699500Y-13093700D01*
X19939363Y-9766302D02*
X19939000Y-13093700D01*
X17360900Y-7188200D02*
G75*
G02*
X19939363Y-9766302I-12337J-2590802D01*
G01*
X8699500Y-13093700D02*
X8699498Y-9766663D01*
X8699498Y-9766663D02*
G75*
G02*
X11277600Y-7188200I2590802J-12337D01*
G01*
X11277600Y-7188200D02*
X17360900Y-7188200D01*
D11*
D12*
X10629933Y-10671281D02*
X10711213Y-10752561D01*
X10711213Y-10671281D02*
X10629933Y-10752561D01*
X10821472Y-10224179D02*
X10902752Y-10305459D01*
X10902752Y-10224179D02*
X10821472Y-10305459D01*
X10887013Y-9537607D02*
X10968293Y-9618887D01*
X10968293Y-9537607D02*
X10887013Y-9618887D01*
X11397760Y-11626860D02*
X11479040Y-11708140D01*
X11479040Y-11626860D02*
X11397760Y-11708140D01*
X11497760Y-9404190D02*
X11579040Y-9485470D01*
X11579040Y-9404190D02*
X11497760Y-9485470D01*
X11696097Y-7998491D02*
X11777377Y-8079771D01*
X11777377Y-7998491D02*
X11696097Y-8079771D01*
X11720830Y-7676860D02*
X11802110Y-7758140D01*
X11802110Y-7676860D02*
X11720830Y-7758140D01*
X11997760Y-9976860D02*
X12079040Y-10058140D01*
X12079040Y-9976860D02*
X11997760Y-10058140D01*
X11997760Y-10426860D02*
X12079040Y-10508140D01*
X12079040Y-10426860D02*
X11997760Y-10508140D01*
X12247760Y-7976860D02*
X12329040Y-8058140D01*
X12329040Y-7976860D02*
X12247760Y-8058140D01*
X12578663Y-8817450D02*
X12659943Y-8898730D01*
X12659943Y-8817450D02*
X12578663Y-8898730D01*
X12847760Y-8204190D02*
X12929040Y-8285470D01*
X12929040Y-8204190D02*
X12847760Y-8285470D01*
X12997760Y-7526860D02*
X13079040Y-7608140D01*
X13079040Y-7526860D02*
X12997760Y-7608140D01*
X13181330Y-8026860D02*
X13262610Y-8108140D01*
X13262610Y-8026860D02*
X13181330Y-8108140D01*
X13195867Y-8875346D02*
X13277147Y-8956626D01*
X13277147Y-8875346D02*
X13195867Y-8956626D01*
X13447760Y-9076860D02*
X13529040Y-9158140D01*
X13529040Y-9076860D02*
X13447760Y-9158140D01*
X13547760Y-11011473D02*
X13629040Y-11092753D01*
X13629040Y-11011473D02*
X13547760Y-11092753D01*
X13647760Y-7654590D02*
X13729040Y-7735870D01*
X13729040Y-7654590D02*
X13647760Y-7735870D01*
X13928857Y-8845763D02*
X14010137Y-8927043D01*
X14010137Y-8845763D02*
X13928857Y-8927043D01*
X13997760Y-8176860D02*
X14079040Y-8258140D01*
X14079040Y-8176860D02*
X13997760Y-8258140D01*
X14247760Y-7904190D02*
X14329040Y-7985470D01*
X14329040Y-7904190D02*
X14247760Y-7985470D01*
X14297760Y-8899220D02*
X14379040Y-8980500D01*
X14379040Y-8899220D02*
X14297760Y-8980500D01*
X14520329Y-10731592D02*
X14601609Y-10812872D01*
X14601609Y-10731592D02*
X14520329Y-10812872D01*
X14847760Y-7348855D02*
X14929040Y-7430135D01*
X14929040Y-7348855D02*
X14847760Y-7430135D01*
X14847760Y-7676860D02*
X14929040Y-7758140D01*
X14929040Y-7676860D02*
X14847760Y-7758140D01*
X14847760Y-8176860D02*
X14929040Y-8258140D01*
X14929040Y-8176860D02*
X14847760Y-8258140D01*
X15035950Y-12336792D02*
X15117230Y-12418072D01*
X15117230Y-12336792D02*
X15035950Y-12418072D01*
X15447760Y-8176860D02*
X15529040Y-8258140D01*
X15529040Y-8176860D02*
X15447760Y-8258140D01*
X15947760Y-10926860D02*
X16029040Y-11008140D01*
X16029040Y-10926860D02*
X15947760Y-11008140D01*
X15997760Y-7876860D02*
X16079040Y-7958140D01*
X16079040Y-7876860D02*
X15997760Y-7958140D01*
X16315663Y-8957150D02*
X16396943Y-9038430D01*
X16396943Y-8957150D02*
X16315663Y-9038430D01*
X16597760Y-8176860D02*
X16679040Y-8258140D01*
X16679040Y-8176860D02*
X16597760Y-8258140D01*
X16597760Y-9176860D02*
X16679040Y-9258140D01*
X16679040Y-9176860D02*
X16597760Y-9258140D01*
X17397760Y-7654190D02*
X17479040Y-7735470D01*
X17479040Y-7654190D02*
X17397760Y-7735470D01*
X17508507Y-8301990D02*
X17589787Y-8383270D01*
X17589787Y-8301990D02*
X17508507Y-8383270D01*
X9270200Y-10517200D02*
G75*
G02*
X9170200Y-10517200I-50000J0D01*
G01*
X9170200Y-10517200D02*
G75*
G02*
X9270200Y-10517200I50000J0D01*
G01*
X9270200Y-11167200D02*
G75*
G02*
X9170200Y-11167200I-50000J0D01*
G01*
X9170200Y-11167200D02*
G75*
G02*
X9270200Y-11167200I50000J0D01*
G01*
X9720200Y-10517200D02*
G75*
G02*
X9620200Y-10517200I-50000J0D01*
G01*
X9620200Y-10517200D02*
G75*
G02*
X9720200Y-10517200I50000J0D01*
G01*
X9720200Y-11167200D02*
G75*
G02*
X9620200Y-11167200I-50000J0D01*
G01*
X9620200Y-11167200D02*
G75*
G02*
X9720200Y-11167200I50000J0D01*
G01*
X10162800Y-9637000D02*
G75*
G02*
X10062800Y-9637000I-50000J0D01*
G01*
X10062800Y-9637000D02*
G75*
G02*
X10162800Y-9637000I50000J0D01*
G01*
X10162800Y-10287000D02*
G75*
G02*
X10062800Y-10287000I-50000J0D01*
G01*
X10062800Y-10287000D02*
G75*
G02*
X10162800Y-10287000I50000J0D01*
G01*
X10162800Y-11402300D02*
G75*
G02*
X10062800Y-11402300I-50000J0D01*
G01*
X10062800Y-11402300D02*
G75*
G02*
X10162800Y-11402300I50000J0D01*
G01*
X10162800Y-12052300D02*
G75*
G02*
X10062800Y-12052300I-50000J0D01*
G01*
X10062800Y-12052300D02*
G75*
G02*
X10162800Y-12052300I50000J0D01*
G01*
X10612800Y-9637000D02*
G75*
G02*
X10512800Y-9637000I-50000J0D01*
G01*
X10512800Y-9637000D02*
G75*
G02*
X10612800Y-9637000I50000J0D01*
G01*
X10612800Y-10287000D02*
G75*
G02*
X10512800Y-10287000I-50000J0D01*
G01*
X10512800Y-10287000D02*
G75*
G02*
X10612800Y-10287000I50000J0D01*
G01*
X10612800Y-11402300D02*
G75*
G02*
X10512800Y-11402300I-50000J0D01*
G01*
X10512800Y-11402300D02*
G75*
G02*
X10612800Y-11402300I50000J0D01*
G01*
X10612800Y-12052300D02*
G75*
G02*
X10512800Y-12052300I-50000J0D01*
G01*
X10512800Y-12052300D02*
G75*
G02*
X10612800Y-12052300I50000J0D01*
G01*
X11055400Y-10517200D02*
G75*
G02*
X10955400Y-10517200I-50000J0D01*
G01*
X10955400Y-10517200D02*
G75*
G02*
X11055400Y-10517200I50000J0D01*
G01*
X11055400Y-11167200D02*
G75*
G02*
X10955400Y-11167200I-50000J0D01*
G01*
X10955400Y-11167200D02*
G75*
G02*
X11055400Y-11167200I50000J0D01*
G01*
X11505400Y-10517200D02*
G75*
G02*
X11405400Y-10517200I-50000J0D01*
G01*
X11405400Y-10517200D02*
G75*
G02*
X11505400Y-10517200I50000J0D01*
G01*
X11505400Y-11167200D02*
G75*
G02*
X11405400Y-11167200I-50000J0D01*
G01*
X11405400Y-11167200D02*
G75*
G02*
X11505400Y-11167200I50000J0D01*
G01*
X12851600Y-9370300D02*
G75*
G02*
X12751600Y-9370300I-50000J0D01*
G01*
X12751600Y-9370300D02*
G75*
G02*
X12851600Y-9370300I50000J0D01*
G01*
X12851600Y-10020300D02*
G75*
G02*
X12751600Y-10020300I-50000J0D01*
G01*
X12751600Y-10020300D02*
G75*
G02*
X12851600Y-10020300I50000J0D01*
G01*
X12851600Y-10229667D02*
G75*
G02*
X12751600Y-10229667I-50000J0D01*
G01*
X12751600Y-10229667D02*
G75*
G02*
X12851600Y-10229667I50000J0D01*
G01*
X12851600Y-10879667D02*
G75*
G02*
X12751600Y-10879667I-50000J0D01*
G01*
X12751600Y-10879667D02*
G75*
G02*
X12851600Y-10879667I50000J0D01*
G01*
X12851600Y-11089033D02*
G75*
G02*
X12751600Y-11089033I-50000J0D01*
G01*
X12751600Y-11089033D02*
G75*
G02*
X12851600Y-11089033I50000J0D01*
G01*
X12851600Y-11739033D02*
G75*
G02*
X12751600Y-11739033I-50000J0D01*
G01*
X12751600Y-11739033D02*
G75*
G02*
X12851600Y-11739033I50000J0D01*
G01*
X12851600Y-11948400D02*
G75*
G02*
X12751600Y-11948400I-50000J0D01*
G01*
X12751600Y-11948400D02*
G75*
G02*
X12851600Y-11948400I50000J0D01*
G01*
X12851600Y-12598400D02*
G75*
G02*
X12751600Y-12598400I-50000J0D01*
G01*
X12751600Y-12598400D02*
G75*
G02*
X12851600Y-12598400I50000J0D01*
G01*
X13301600Y-9370300D02*
G75*
G02*
X13201600Y-9370300I-50000J0D01*
G01*
X13201600Y-9370300D02*
G75*
G02*
X13301600Y-9370300I50000J0D01*
G01*
X13301600Y-10020300D02*
G75*
G02*
X13201600Y-10020300I-50000J0D01*
G01*
X13201600Y-10020300D02*
G75*
G02*
X13301600Y-10020300I50000J0D01*
G01*
X13301600Y-10229667D02*
G75*
G02*
X13201600Y-10229667I-50000J0D01*
G01*
X13201600Y-10229667D02*
G75*
G02*
X13301600Y-10229667I50000J0D01*
G01*
X13301600Y-10879667D02*
G75*
G02*
X13201600Y-10879667I-50000J0D01*
G01*
X13201600Y-10879667D02*
G75*
G02*
X13301600Y-10879667I50000J0D01*
G01*
X13301600Y-11089033D02*
G75*
G02*
X13201600Y-11089033I-50000J0D01*
G01*
X13201600Y-11089033D02*
G75*
G02*
X13301600Y-11089033I50000J0D01*
G01*
X13301600Y-11739033D02*
G75*
G02*
X13201600Y-11739033I-50000J0D01*
G01*
X13201600Y-11739033D02*
G75*
G02*
X13301600Y-11739033I50000J0D01*
G01*
X13301600Y-11948400D02*
G75*
G02*
X13201600Y-11948400I-50000J0D01*
G01*
X13201600Y-11948400D02*
G75*
G02*
X13301600Y-11948400I50000J0D01*
G01*
X13301600Y-12598400D02*
G75*
G02*
X13201600Y-12598400I-50000J0D01*
G01*
X13201600Y-12598400D02*
G75*
G02*
X13301600Y-12598400I50000J0D01*
G01*
X13893000Y-9357600D02*
G75*
G02*
X13793000Y-9357600I-50000J0D01*
G01*
X13793000Y-9357600D02*
G75*
G02*
X13893000Y-9357600I50000J0D01*
G01*
X13893000Y-10007600D02*
G75*
G02*
X13793000Y-10007600I-50000J0D01*
G01*
X13793000Y-10007600D02*
G75*
G02*
X13893000Y-10007600I50000J0D01*
G01*
X13893000Y-10221200D02*
G75*
G02*
X13793000Y-10221200I-50000J0D01*
G01*
X13793000Y-10221200D02*
G75*
G02*
X13893000Y-10221200I50000J0D01*
G01*
X13893000Y-10871200D02*
G75*
G02*
X13793000Y-10871200I-50000J0D01*
G01*
X13793000Y-10871200D02*
G75*
G02*
X13893000Y-10871200I50000J0D01*
G01*
X13893000Y-11084800D02*
G75*
G02*
X13793000Y-11084800I-50000J0D01*
G01*
X13793000Y-11084800D02*
G75*
G02*
X13893000Y-11084800I50000J0D01*
G01*
X13893000Y-11734800D02*
G75*
G02*
X13793000Y-11734800I-50000J0D01*
G01*
X13793000Y-11734800D02*
G75*
G02*
X13893000Y-11734800I50000J0D01*
G01*
X13893000Y-11948400D02*
G75*
G02*
X13793000Y-11948400I-50000J0D01*
G01*
X13793000Y-11948400D02*
G75*
G02*
X13893000Y-11948400I50000J0D01*
G01*
X13893000Y-12598400D02*
G75*
G02*
X13793000Y-12598400I-50000J0D01*
G01*
X13793000Y-12598400D02*
G75*
G02*
X13893000Y-12598400I50000J0D01*
G01*
X14343000Y-9357600D02*
G75*
G02*
X14243000Y-9357600I-50000J0D01*
G01*
X14243000Y-9357600D02*
G75*
G02*
X14343000Y-9357600I50000J0D01*
G01*
X14343000Y-10007600D02*
G75*
G02*
X14243000Y-10007600I-50000J0D01*
G01*
X14243000Y-10007600D02*
G75*
G02*
X14343000Y-10007600I50000J0D01*
G01*
X14343000Y-10221200D02*
G75*
G02*
X14243000Y-10221200I-50000J0D01*
G01*
X14243000Y-10221200D02*
G75*
G02*
X14343000Y-10221200I50000J0D01*
G01*
X14343000Y-10871200D02*
G75*
G02*
X14243000Y-10871200I-50000J0D01*
G01*
X14243000Y-10871200D02*
G75*
G02*
X14343000Y-10871200I50000J0D01*
G01*
X14343000Y-11084800D02*
G75*
G02*
X14243000Y-11084800I-50000J0D01*
G01*
X14243000Y-11084800D02*
G75*
G02*
X14343000Y-11084800I50000J0D01*
G01*
X14343000Y-11734800D02*
G75*
G02*
X14243000Y-11734800I-50000J0D01*
G01*
X14243000Y-11734800D02*
G75*
G02*
X14343000Y-11734800I50000J0D01*
G01*
X14343000Y-11948400D02*
G75*
G02*
X14243000Y-11948400I-50000J0D01*
G01*
X14243000Y-11948400D02*
G75*
G02*
X14343000Y-11948400I50000J0D01*
G01*
X14343000Y-12598400D02*
G75*
G02*
X14243000Y-12598400I-50000J0D01*
G01*
X14243000Y-12598400D02*
G75*
G02*
X14343000Y-12598400I50000J0D01*
G01*
X14896300Y-9357600D02*
G75*
G02*
X14796300Y-9357600I-50000J0D01*
G01*
X14796300Y-9357600D02*
G75*
G02*
X14896300Y-9357600I50000J0D01*
G01*
X14896300Y-10007600D02*
G75*
G02*
X14796300Y-10007600I-50000J0D01*
G01*
X14796300Y-10007600D02*
G75*
G02*
X14896300Y-10007600I50000J0D01*
G01*
X14896300Y-10216967D02*
G75*
G02*
X14796300Y-10216967I-50000J0D01*
G01*
X14796300Y-10216967D02*
G75*
G02*
X14896300Y-10216967I50000J0D01*
G01*
X14896300Y-10866967D02*
G75*
G02*
X14796300Y-10866967I-50000J0D01*
G01*
X14796300Y-10866967D02*
G75*
G02*
X14896300Y-10866967I50000J0D01*
G01*
X14896300Y-11076333D02*
G75*
G02*
X14796300Y-11076333I-50000J0D01*
G01*
X14796300Y-11076333D02*
G75*
G02*
X14896300Y-11076333I50000J0D01*
G01*
X14896300Y-11726333D02*
G75*
G02*
X14796300Y-11726333I-50000J0D01*
G01*
X14796300Y-11726333D02*
G75*
G02*
X14896300Y-11726333I50000J0D01*
G01*
X14896300Y-11935700D02*
G75*
G02*
X14796300Y-11935700I-50000J0D01*
G01*
X14796300Y-11935700D02*
G75*
G02*
X14896300Y-11935700I50000J0D01*
G01*
X14896300Y-12585700D02*
G75*
G02*
X14796300Y-12585700I-50000J0D01*
G01*
X14796300Y-12585700D02*
G75*
G02*
X14896300Y-12585700I50000J0D01*
G01*
X15346300Y-9357600D02*
G75*
G02*
X15246300Y-9357600I-50000J0D01*
G01*
X15246300Y-9357600D02*
G75*
G02*
X15346300Y-9357600I50000J0D01*
G01*
X15346300Y-10007600D02*
G75*
G02*
X15246300Y-10007600I-50000J0D01*
G01*
X15246300Y-10007600D02*
G75*
G02*
X15346300Y-10007600I50000J0D01*
G01*
X15346300Y-10216967D02*
G75*
G02*
X15246300Y-10216967I-50000J0D01*
G01*
X15246300Y-10216967D02*
G75*
G02*
X15346300Y-10216967I50000J0D01*
G01*
X15346300Y-10866967D02*
G75*
G02*
X15246300Y-10866967I-50000J0D01*
G01*
X15246300Y-10866967D02*
G75*
G02*
X15346300Y-10866967I50000J0D01*
G01*
X15346300Y-11076333D02*
G75*
G02*
X15246300Y-11076333I-50000J0D01*
G01*
X15246300Y-11076333D02*
G75*
G02*
X15346300Y-11076333I50000J0D01*
G01*
X15346300Y-11726333D02*
G75*
G02*
X15246300Y-11726333I-50000J0D01*
G01*
X15246300Y-11726333D02*
G75*
G02*
X15346300Y-11726333I50000J0D01*
G01*
X15346300Y-11935700D02*
G75*
G02*
X15246300Y-11935700I-50000J0D01*
G01*
X15246300Y-11935700D02*
G75*
G02*
X15346300Y-11935700I50000J0D01*
G01*
X15346300Y-12585700D02*
G75*
G02*
X15246300Y-12585700I-50000J0D01*
G01*
X15246300Y-12585700D02*
G75*
G02*
X15346300Y-12585700I50000J0D01*
G01*
X16991800Y-11351500D02*
G75*
G02*
X16891800Y-11351500I-50000J0D01*
G01*
X16891800Y-11351500D02*
G75*
G02*
X16991800Y-11351500I50000J0D01*
G01*
X16991800Y-12001500D02*
G75*
G02*
X16891800Y-12001500I-50000J0D01*
G01*
X16891800Y-12001500D02*
G75*
G02*
X16991800Y-12001500I50000J0D01*
G01*
X17441800Y-11351500D02*
G75*
G02*
X17341800Y-11351500I-50000J0D01*
G01*
X17341800Y-11351500D02*
G75*
G02*
X17441800Y-11351500I50000J0D01*
G01*
X17441800Y-12001500D02*
G75*
G02*
X17341800Y-12001500I-50000J0D01*
G01*
X17341800Y-12001500D02*
G75*
G02*
X17441800Y-12001500I50000J0D01*
G01*
X17931600Y-7607300D02*
G75*
G02*
X17831600Y-7607300I-50000J0D01*
G01*
X17831600Y-7607300D02*
G75*
G02*
X17931600Y-7607300I50000J0D01*
G01*
X17931600Y-7861300D02*
G75*
G02*
X17831600Y-7861300I-50000J0D01*
G01*
X17831600Y-7861300D02*
G75*
G02*
X17931600Y-7861300I50000J0D01*
G01*
X17931600Y-8115300D02*
G75*
G02*
X17831600Y-8115300I-50000J0D01*
G01*
X17831600Y-8115300D02*
G75*
G02*
X17931600Y-8115300I50000J0D01*
G01*
X17931600Y-8369300D02*
G75*
G02*
X17831600Y-8369300I-50000J0D01*
G01*
X17831600Y-8369300D02*
G75*
G02*
X17931600Y-8369300I50000J0D01*
G01*
X17931600Y-8623300D02*
G75*
G02*
X17831600Y-8623300I-50000J0D01*
G01*
X17831600Y-8623300D02*
G75*
G02*
X17931600Y-8623300I50000J0D01*
G01*
X17931600Y-8877300D02*
G75*
G02*
X17831600Y-8877300I-50000J0D01*
G01*
X17831600Y-8877300D02*
G75*
G02*
X17931600Y-8877300I50000J0D01*
G01*
X17931600Y-9131300D02*
G75*
G02*
X17831600Y-9131300I-50000J0D01*
G01*
X17831600Y-9131300D02*
G75*
G02*
X17931600Y-9131300I50000J0D01*
G01*
X17931600Y-9385300D02*
G75*
G02*
X17831600Y-9385300I-50000J0D01*
G01*
X17831600Y-9385300D02*
G75*
G02*
X17931600Y-9385300I50000J0D01*
G01*
X17931600Y-9639300D02*
G75*
G02*
X17831600Y-9639300I-50000J0D01*
G01*
X17831600Y-9639300D02*
G75*
G02*
X17931600Y-9639300I50000J0D01*
G01*
X18586500Y-10517200D02*
G75*
G02*
X18486500Y-10517200I-50000J0D01*
G01*
X18486500Y-10517200D02*
G75*
G02*
X18586500Y-10517200I50000J0D01*
G01*
X18586500Y-11167200D02*
G75*
G02*
X18486500Y-11167200I-50000J0D01*
G01*
X18486500Y-11167200D02*
G75*
G02*
X18586500Y-11167200I50000J0D01*
G01*
X19036500Y-10517200D02*
G75*
G02*
X18936500Y-10517200I-50000J0D01*
G01*
X18936500Y-10517200D02*
G75*
G02*
X19036500Y-10517200I50000J0D01*
G01*
X19036500Y-11167200D02*
G75*
G02*
X18936500Y-11167200I-50000J0D01*
G01*
X18936500Y-11167200D02*
G75*
G02*
X19036500Y-11167200I50000J0D01*
G01*
D11*
X8955195Y-13410264D02*
X8955195Y-13210264D01*
X8955195Y-13210264D02*
X9002814Y-13210264D01*
X9002814Y-13210264D02*
X9031386Y-13219788D01*
X9031386Y-13219788D02*
X9050433Y-13238835D01*
X9050433Y-13238835D02*
X9059957Y-13257883D01*
X9059957Y-13257883D02*
X9069481Y-13295978D01*
X9069481Y-13295978D02*
X9069481Y-13324549D01*
X9069481Y-13324549D02*
X9059957Y-13362645D01*
X9059957Y-13362645D02*
X9050433Y-13381692D01*
X9050433Y-13381692D02*
X9031386Y-13400740D01*
X9031386Y-13400740D02*
X9002814Y-13410264D01*
X9002814Y-13410264D02*
X8955195Y-13410264D01*
X9155195Y-13410264D02*
X9155195Y-13276930D01*
X9155195Y-13315026D02*
X9164719Y-13295978D01*
X9164719Y-13295978D02*
X9174243Y-13286454D01*
X9174243Y-13286454D02*
X9193290Y-13276930D01*
X9193290Y-13276930D02*
X9212338Y-13276930D01*
X9279005Y-13410264D02*
X9279005Y-13276930D01*
X9279005Y-13210264D02*
X9269481Y-13219788D01*
X9269481Y-13219788D02*
X9279005Y-13229311D01*
X9279005Y-13229311D02*
X9288528Y-13219788D01*
X9288528Y-13219788D02*
X9279005Y-13210264D01*
X9279005Y-13210264D02*
X9279005Y-13229311D01*
X9402814Y-13410264D02*
X9383766Y-13400740D01*
X9383766Y-13400740D02*
X9374243Y-13381692D01*
X9374243Y-13381692D02*
X9374243Y-13210264D01*
X9507576Y-13410264D02*
X9488528Y-13400740D01*
X9488528Y-13400740D02*
X9479005Y-13381692D01*
X9479005Y-13381692D02*
X9479005Y-13210264D01*
X9736147Y-13410264D02*
X9736147Y-13210264D01*
X9736147Y-13210264D02*
X9802814Y-13353121D01*
X9802814Y-13353121D02*
X9869481Y-13210264D01*
X9869481Y-13210264D02*
X9869481Y-13410264D01*
X10050433Y-13410264D02*
X10050433Y-13305502D01*
X10050433Y-13305502D02*
X10040909Y-13286454D01*
X10040909Y-13286454D02*
X10021862Y-13276930D01*
X10021862Y-13276930D02*
X9983766Y-13276930D01*
X9983766Y-13276930D02*
X9964719Y-13286454D01*
X10050433Y-13400740D02*
X10031386Y-13410264D01*
X10031386Y-13410264D02*
X9983766Y-13410264D01*
X9983766Y-13410264D02*
X9964719Y-13400740D01*
X9964719Y-13400740D02*
X9955195Y-13381692D01*
X9955195Y-13381692D02*
X9955195Y-13362645D01*
X9955195Y-13362645D02*
X9964719Y-13343597D01*
X9964719Y-13343597D02*
X9983766Y-13334073D01*
X9983766Y-13334073D02*
X10031386Y-13334073D01*
X10031386Y-13334073D02*
X10050433Y-13324549D01*
X10145671Y-13276930D02*
X10145671Y-13476930D01*
X10145671Y-13286454D02*
X10164719Y-13276930D01*
X10164719Y-13276930D02*
X10202814Y-13276930D01*
X10202814Y-13276930D02*
X10221862Y-13286454D01*
X10221862Y-13286454D02*
X10231386Y-13295978D01*
X10231386Y-13295978D02*
X10240909Y-13315026D01*
X10240909Y-13315026D02*
X10240909Y-13372168D01*
X10240909Y-13372168D02*
X10231386Y-13391216D01*
X10231386Y-13391216D02*
X10221862Y-13400740D01*
X10221862Y-13400740D02*
X10202814Y-13410264D01*
X10202814Y-13410264D02*
X10164719Y-13410264D01*
X10164719Y-13410264D02*
X10145671Y-13400740D01*
X10326624Y-13391216D02*
X10336147Y-13400740D01*
X10336147Y-13400740D02*
X10326624Y-13410264D01*
X10326624Y-13410264D02*
X10317100Y-13400740D01*
X10317100Y-13400740D02*
X10326624Y-13391216D01*
X10326624Y-13391216D02*
X10326624Y-13410264D01*
X10326624Y-13286454D02*
X10336147Y-13295978D01*
X10336147Y-13295978D02*
X10326624Y-13305502D01*
X10326624Y-13305502D02*
X10317100Y-13295978D01*
X10317100Y-13295978D02*
X10326624Y-13286454D01*
X10326624Y-13286454D02*
X10326624Y-13305502D01*
D12*
X8613138Y-13698140D02*
X8694418Y-13779420D01*
X8694418Y-13698140D02*
X8613138Y-13779420D01*
D11*
X8993290Y-13630264D02*
X9012338Y-13630264D01*
X9012338Y-13630264D02*
X9031386Y-13639788D01*
X9031386Y-13639788D02*
X9040909Y-13649311D01*
X9040909Y-13649311D02*
X9050433Y-13668359D01*
X9050433Y-13668359D02*
X9059957Y-13706454D01*
X9059957Y-13706454D02*
X9059957Y-13754073D01*
X9059957Y-13754073D02*
X9050433Y-13792168D01*
X9050433Y-13792168D02*
X9040909Y-13811216D01*
X9040909Y-13811216D02*
X9031386Y-13820740D01*
X9031386Y-13820740D02*
X9012338Y-13830264D01*
X9012338Y-13830264D02*
X8993290Y-13830264D01*
X8993290Y-13830264D02*
X8974243Y-13820740D01*
X8974243Y-13820740D02*
X8964719Y-13811216D01*
X8964719Y-13811216D02*
X8955195Y-13792168D01*
X8955195Y-13792168D02*
X8945671Y-13754073D01*
X8945671Y-13754073D02*
X8945671Y-13706454D01*
X8945671Y-13706454D02*
X8955195Y-13668359D01*
X8955195Y-13668359D02*
X8964719Y-13649311D01*
X8964719Y-13649311D02*
X8974243Y-13639788D01*
X8974243Y-13639788D02*
X8993290Y-13630264D01*
X9145671Y-13811216D02*
X9155195Y-13820740D01*
X9155195Y-13820740D02*
X9145671Y-13830264D01*
X9145671Y-13830264D02*
X9136147Y-13820740D01*
X9136147Y-13820740D02*
X9145671Y-13811216D01*
X9145671Y-13811216D02*
X9145671Y-13830264D01*
X9269481Y-13715978D02*
X9250433Y-13706454D01*
X9250433Y-13706454D02*
X9240909Y-13696930D01*
X9240909Y-13696930D02*
X9231386Y-13677883D01*
X9231386Y-13677883D02*
X9231386Y-13668359D01*
X9231386Y-13668359D02*
X9240909Y-13649311D01*
X9240909Y-13649311D02*
X9250433Y-13639788D01*
X9250433Y-13639788D02*
X9269481Y-13630264D01*
X9269481Y-13630264D02*
X9307576Y-13630264D01*
X9307576Y-13630264D02*
X9326624Y-13639788D01*
X9326624Y-13639788D02*
X9336147Y-13649311D01*
X9336147Y-13649311D02*
X9345671Y-13668359D01*
X9345671Y-13668359D02*
X9345671Y-13677883D01*
X9345671Y-13677883D02*
X9336147Y-13696930D01*
X9336147Y-13696930D02*
X9326624Y-13706454D01*
X9326624Y-13706454D02*
X9307576Y-13715978D01*
X9307576Y-13715978D02*
X9269481Y-13715978D01*
X9269481Y-13715978D02*
X9250433Y-13725502D01*
X9250433Y-13725502D02*
X9240909Y-13735026D01*
X9240909Y-13735026D02*
X9231386Y-13754073D01*
X9231386Y-13754073D02*
X9231386Y-13792168D01*
X9231386Y-13792168D02*
X9240909Y-13811216D01*
X9240909Y-13811216D02*
X9250433Y-13820740D01*
X9250433Y-13820740D02*
X9269481Y-13830264D01*
X9269481Y-13830264D02*
X9307576Y-13830264D01*
X9307576Y-13830264D02*
X9326624Y-13820740D01*
X9326624Y-13820740D02*
X9336147Y-13811216D01*
X9336147Y-13811216D02*
X9345671Y-13792168D01*
X9345671Y-13792168D02*
X9345671Y-13754073D01*
X9345671Y-13754073D02*
X9336147Y-13735026D01*
X9336147Y-13735026D02*
X9326624Y-13725502D01*
X9326624Y-13725502D02*
X9307576Y-13715978D01*
X9536147Y-13830264D02*
X9421862Y-13830264D01*
X9479005Y-13830264D02*
X9479005Y-13630264D01*
X9479005Y-13630264D02*
X9459957Y-13658835D01*
X9459957Y-13658835D02*
X9440909Y-13677883D01*
X9440909Y-13677883D02*
X9421862Y-13687407D01*
X9602814Y-13630264D02*
X9726624Y-13630264D01*
X9726624Y-13630264D02*
X9659957Y-13706454D01*
X9659957Y-13706454D02*
X9688528Y-13706454D01*
X9688528Y-13706454D02*
X9707576Y-13715978D01*
X9707576Y-13715978D02*
X9717100Y-13725502D01*
X9717100Y-13725502D02*
X9726624Y-13744549D01*
X9726624Y-13744549D02*
X9726624Y-13792168D01*
X9726624Y-13792168D02*
X9717100Y-13811216D01*
X9717100Y-13811216D02*
X9707576Y-13820740D01*
X9707576Y-13820740D02*
X9688528Y-13830264D01*
X9688528Y-13830264D02*
X9631386Y-13830264D01*
X9631386Y-13830264D02*
X9612338Y-13820740D01*
X9612338Y-13820740D02*
X9602814Y-13811216D01*
X9812338Y-13830264D02*
X9812338Y-13696930D01*
X9812338Y-13715978D02*
X9821862Y-13706454D01*
X9821862Y-13706454D02*
X9840909Y-13696930D01*
X9840909Y-13696930D02*
X9869481Y-13696930D01*
X9869481Y-13696930D02*
X9888528Y-13706454D01*
X9888528Y-13706454D02*
X9898052Y-13725502D01*
X9898052Y-13725502D02*
X9898052Y-13830264D01*
X9898052Y-13725502D02*
X9907576Y-13706454D01*
X9907576Y-13706454D02*
X9926624Y-13696930D01*
X9926624Y-13696930D02*
X9955195Y-13696930D01*
X9955195Y-13696930D02*
X9974243Y-13706454D01*
X9974243Y-13706454D02*
X9983767Y-13725502D01*
X9983767Y-13725502D02*
X9983767Y-13830264D01*
X10079005Y-13830264D02*
X10079005Y-13696930D01*
X10079005Y-13715978D02*
X10088528Y-13706454D01*
X10088528Y-13706454D02*
X10107576Y-13696930D01*
X10107576Y-13696930D02*
X10136148Y-13696930D01*
X10136148Y-13696930D02*
X10155195Y-13706454D01*
X10155195Y-13706454D02*
X10164719Y-13725502D01*
X10164719Y-13725502D02*
X10164719Y-13830264D01*
X10164719Y-13725502D02*
X10174243Y-13706454D01*
X10174243Y-13706454D02*
X10193290Y-13696930D01*
X10193290Y-13696930D02*
X10221862Y-13696930D01*
X10221862Y-13696930D02*
X10240909Y-13706454D01*
X10240909Y-13706454D02*
X10250433Y-13725502D01*
X10250433Y-13725502D02*
X10250433Y-13830264D01*
X10640909Y-13620740D02*
X10469481Y-13877883D01*
X10898052Y-13630264D02*
X10917100Y-13630264D01*
X10917100Y-13630264D02*
X10936148Y-13639788D01*
X10936148Y-13639788D02*
X10945671Y-13649311D01*
X10945671Y-13649311D02*
X10955195Y-13668359D01*
X10955195Y-13668359D02*
X10964719Y-13706454D01*
X10964719Y-13706454D02*
X10964719Y-13754073D01*
X10964719Y-13754073D02*
X10955195Y-13792168D01*
X10955195Y-13792168D02*
X10945671Y-13811216D01*
X10945671Y-13811216D02*
X10936148Y-13820740D01*
X10936148Y-13820740D02*
X10917100Y-13830264D01*
X10917100Y-13830264D02*
X10898052Y-13830264D01*
X10898052Y-13830264D02*
X10879005Y-13820740D01*
X10879005Y-13820740D02*
X10869481Y-13811216D01*
X10869481Y-13811216D02*
X10859957Y-13792168D01*
X10859957Y-13792168D02*
X10850433Y-13754073D01*
X10850433Y-13754073D02*
X10850433Y-13706454D01*
X10850433Y-13706454D02*
X10859957Y-13668359D01*
X10859957Y-13668359D02*
X10869481Y-13649311D01*
X10869481Y-13649311D02*
X10879005Y-13639788D01*
X10879005Y-13639788D02*
X10898052Y-13630264D01*
X11050433Y-13811216D02*
X11059957Y-13820740D01*
X11059957Y-13820740D02*
X11050433Y-13830264D01*
X11050433Y-13830264D02*
X11040910Y-13820740D01*
X11040910Y-13820740D02*
X11050433Y-13811216D01*
X11050433Y-13811216D02*
X11050433Y-13830264D01*
X11183767Y-13630264D02*
X11202814Y-13630264D01*
X11202814Y-13630264D02*
X11221862Y-13639788D01*
X11221862Y-13639788D02*
X11231386Y-13649311D01*
X11231386Y-13649311D02*
X11240909Y-13668359D01*
X11240909Y-13668359D02*
X11250433Y-13706454D01*
X11250433Y-13706454D02*
X11250433Y-13754073D01*
X11250433Y-13754073D02*
X11240909Y-13792168D01*
X11240909Y-13792168D02*
X11231386Y-13811216D01*
X11231386Y-13811216D02*
X11221862Y-13820740D01*
X11221862Y-13820740D02*
X11202814Y-13830264D01*
X11202814Y-13830264D02*
X11183767Y-13830264D01*
X11183767Y-13830264D02*
X11164719Y-13820740D01*
X11164719Y-13820740D02*
X11155195Y-13811216D01*
X11155195Y-13811216D02*
X11145671Y-13792168D01*
X11145671Y-13792168D02*
X11136148Y-13754073D01*
X11136148Y-13754073D02*
X11136148Y-13706454D01*
X11136148Y-13706454D02*
X11145671Y-13668359D01*
X11145671Y-13668359D02*
X11155195Y-13649311D01*
X11155195Y-13649311D02*
X11164719Y-13639788D01*
X11164719Y-13639788D02*
X11183767Y-13630264D01*
X11317100Y-13630264D02*
X11440909Y-13630264D01*
X11440909Y-13630264D02*
X11374243Y-13706454D01*
X11374243Y-13706454D02*
X11402814Y-13706454D01*
X11402814Y-13706454D02*
X11421862Y-13715978D01*
X11421862Y-13715978D02*
X11431386Y-13725502D01*
X11431386Y-13725502D02*
X11440909Y-13744549D01*
X11440909Y-13744549D02*
X11440909Y-13792168D01*
X11440909Y-13792168D02*
X11431386Y-13811216D01*
X11431386Y-13811216D02*
X11421862Y-13820740D01*
X11421862Y-13820740D02*
X11402814Y-13830264D01*
X11402814Y-13830264D02*
X11345671Y-13830264D01*
X11345671Y-13830264D02*
X11326624Y-13820740D01*
X11326624Y-13820740D02*
X11317100Y-13811216D01*
X11517100Y-13649311D02*
X11526624Y-13639788D01*
X11526624Y-13639788D02*
X11545671Y-13630264D01*
X11545671Y-13630264D02*
X11593290Y-13630264D01*
X11593290Y-13630264D02*
X11612338Y-13639788D01*
X11612338Y-13639788D02*
X11621862Y-13649311D01*
X11621862Y-13649311D02*
X11631386Y-13668359D01*
X11631386Y-13668359D02*
X11631386Y-13687407D01*
X11631386Y-13687407D02*
X11621862Y-13715978D01*
X11621862Y-13715978D02*
X11507576Y-13830264D01*
X11507576Y-13830264D02*
X11631386Y-13830264D01*
X11755195Y-13630264D02*
X11774243Y-13630264D01*
X11774243Y-13630264D02*
X11793290Y-13639788D01*
X11793290Y-13639788D02*
X11802814Y-13649311D01*
X11802814Y-13649311D02*
X11812338Y-13668359D01*
X11812338Y-13668359D02*
X11821862Y-13706454D01*
X11821862Y-13706454D02*
X11821862Y-13754073D01*
X11821862Y-13754073D02*
X11812338Y-13792168D01*
X11812338Y-13792168D02*
X11802814Y-13811216D01*
X11802814Y-13811216D02*
X11793290Y-13820740D01*
X11793290Y-13820740D02*
X11774243Y-13830264D01*
X11774243Y-13830264D02*
X11755195Y-13830264D01*
X11755195Y-13830264D02*
X11736148Y-13820740D01*
X11736148Y-13820740D02*
X11726624Y-13811216D01*
X11726624Y-13811216D02*
X11717100Y-13792168D01*
X11717100Y-13792168D02*
X11707576Y-13754073D01*
X11707576Y-13754073D02*
X11707576Y-13706454D01*
X11707576Y-13706454D02*
X11717100Y-13668359D01*
X11717100Y-13668359D02*
X11726624Y-13649311D01*
X11726624Y-13649311D02*
X11736148Y-13639788D01*
X11736148Y-13639788D02*
X11755195Y-13630264D01*
X11898052Y-13630264D02*
X11898052Y-13668359D01*
X11974243Y-13630264D02*
X11974243Y-13668359D01*
X12269481Y-13906454D02*
X12259957Y-13896930D01*
X12259957Y-13896930D02*
X12240910Y-13868359D01*
X12240910Y-13868359D02*
X12231386Y-13849311D01*
X12231386Y-13849311D02*
X12221862Y-13820740D01*
X12221862Y-13820740D02*
X12212338Y-13773121D01*
X12212338Y-13773121D02*
X12212338Y-13735026D01*
X12212338Y-13735026D02*
X12221862Y-13687407D01*
X12221862Y-13687407D02*
X12231386Y-13658835D01*
X12231386Y-13658835D02*
X12240910Y-13639788D01*
X12240910Y-13639788D02*
X12259957Y-13611216D01*
X12259957Y-13611216D02*
X12269481Y-13601692D01*
X12326624Y-13630264D02*
X12450433Y-13630264D01*
X12450433Y-13630264D02*
X12383767Y-13706454D01*
X12383767Y-13706454D02*
X12412338Y-13706454D01*
X12412338Y-13706454D02*
X12431386Y-13715978D01*
X12431386Y-13715978D02*
X12440910Y-13725502D01*
X12440910Y-13725502D02*
X12450433Y-13744549D01*
X12450433Y-13744549D02*
X12450433Y-13792168D01*
X12450433Y-13792168D02*
X12440910Y-13811216D01*
X12440910Y-13811216D02*
X12431386Y-13820740D01*
X12431386Y-13820740D02*
X12412338Y-13830264D01*
X12412338Y-13830264D02*
X12355195Y-13830264D01*
X12355195Y-13830264D02*
X12336148Y-13820740D01*
X12336148Y-13820740D02*
X12326624Y-13811216D01*
X12631386Y-13630264D02*
X12536148Y-13630264D01*
X12536148Y-13630264D02*
X12526624Y-13725502D01*
X12526624Y-13725502D02*
X12536148Y-13715978D01*
X12536148Y-13715978D02*
X12555195Y-13706454D01*
X12555195Y-13706454D02*
X12602814Y-13706454D01*
X12602814Y-13706454D02*
X12621862Y-13715978D01*
X12621862Y-13715978D02*
X12631386Y-13725502D01*
X12631386Y-13725502D02*
X12640910Y-13744549D01*
X12640910Y-13744549D02*
X12640910Y-13792168D01*
X12640910Y-13792168D02*
X12631386Y-13811216D01*
X12631386Y-13811216D02*
X12621862Y-13820740D01*
X12621862Y-13820740D02*
X12602814Y-13830264D01*
X12602814Y-13830264D02*
X12555195Y-13830264D01*
X12555195Y-13830264D02*
X12536148Y-13820740D01*
X12536148Y-13820740D02*
X12526624Y-13811216D01*
X12879005Y-13830264D02*
X12879005Y-13630264D01*
X12964719Y-13830264D02*
X12964719Y-13725502D01*
X12964719Y-13725502D02*
X12955195Y-13706454D01*
X12955195Y-13706454D02*
X12936148Y-13696930D01*
X12936148Y-13696930D02*
X12907576Y-13696930D01*
X12907576Y-13696930D02*
X12888529Y-13706454D01*
X12888529Y-13706454D02*
X12879005Y-13715978D01*
X13088529Y-13830264D02*
X13069481Y-13820740D01*
X13069481Y-13820740D02*
X13059957Y-13811216D01*
X13059957Y-13811216D02*
X13050433Y-13792168D01*
X13050433Y-13792168D02*
X13050433Y-13735026D01*
X13050433Y-13735026D02*
X13059957Y-13715978D01*
X13059957Y-13715978D02*
X13069481Y-13706454D01*
X13069481Y-13706454D02*
X13088529Y-13696930D01*
X13088529Y-13696930D02*
X13117100Y-13696930D01*
X13117100Y-13696930D02*
X13136148Y-13706454D01*
X13136148Y-13706454D02*
X13145672Y-13715978D01*
X13145672Y-13715978D02*
X13155195Y-13735026D01*
X13155195Y-13735026D02*
X13155195Y-13792168D01*
X13155195Y-13792168D02*
X13145672Y-13811216D01*
X13145672Y-13811216D02*
X13136148Y-13820740D01*
X13136148Y-13820740D02*
X13117100Y-13830264D01*
X13117100Y-13830264D02*
X13088529Y-13830264D01*
X13269481Y-13830264D02*
X13250433Y-13820740D01*
X13250433Y-13820740D02*
X13240910Y-13801692D01*
X13240910Y-13801692D02*
X13240910Y-13630264D01*
X13421862Y-13820740D02*
X13402814Y-13830264D01*
X13402814Y-13830264D02*
X13364719Y-13830264D01*
X13364719Y-13830264D02*
X13345672Y-13820740D01*
X13345672Y-13820740D02*
X13336148Y-13801692D01*
X13336148Y-13801692D02*
X13336148Y-13725502D01*
X13336148Y-13725502D02*
X13345672Y-13706454D01*
X13345672Y-13706454D02*
X13364719Y-13696930D01*
X13364719Y-13696930D02*
X13402814Y-13696930D01*
X13402814Y-13696930D02*
X13421862Y-13706454D01*
X13421862Y-13706454D02*
X13431386Y-13725502D01*
X13431386Y-13725502D02*
X13431386Y-13744549D01*
X13431386Y-13744549D02*
X13336148Y-13763597D01*
X13507576Y-13820740D02*
X13526624Y-13830264D01*
X13526624Y-13830264D02*
X13564719Y-13830264D01*
X13564719Y-13830264D02*
X13583767Y-13820740D01*
X13583767Y-13820740D02*
X13593291Y-13801692D01*
X13593291Y-13801692D02*
X13593291Y-13792168D01*
X13593291Y-13792168D02*
X13583767Y-13773121D01*
X13583767Y-13773121D02*
X13564719Y-13763597D01*
X13564719Y-13763597D02*
X13536148Y-13763597D01*
X13536148Y-13763597D02*
X13517100Y-13754073D01*
X13517100Y-13754073D02*
X13507576Y-13735026D01*
X13507576Y-13735026D02*
X13507576Y-13725502D01*
X13507576Y-13725502D02*
X13517100Y-13706454D01*
X13517100Y-13706454D02*
X13536148Y-13696930D01*
X13536148Y-13696930D02*
X13564719Y-13696930D01*
X13564719Y-13696930D02*
X13583767Y-13706454D01*
X13659957Y-13906454D02*
X13669481Y-13896930D01*
X13669481Y-13896930D02*
X13688529Y-13868359D01*
X13688529Y-13868359D02*
X13698053Y-13849311D01*
X13698053Y-13849311D02*
X13707576Y-13820740D01*
X13707576Y-13820740D02*
X13717100Y-13773121D01*
X13717100Y-13773121D02*
X13717100Y-13735026D01*
X13717100Y-13735026D02*
X13707576Y-13687407D01*
X13707576Y-13687407D02*
X13698053Y-13658835D01*
X13698053Y-13658835D02*
X13688529Y-13639788D01*
X13688529Y-13639788D02*
X13669481Y-13611216D01*
X13669481Y-13611216D02*
X13659957Y-13601692D01*
D12*
X8694418Y-14002780D02*
G75*
G02*
X8594418Y-14002780I-50000J0D01*
G01*
X8594418Y-14002780D02*
G75*
G02*
X8694418Y-14002780I50000J0D01*
G01*
D11*
X9059957Y-14094264D02*
X8945671Y-14094264D01*
X9002814Y-14094264D02*
X9002814Y-13894264D01*
X9002814Y-13894264D02*
X8983766Y-13922835D01*
X8983766Y-13922835D02*
X8964719Y-13941883D01*
X8964719Y-13941883D02*
X8945671Y-13951407D01*
X9145671Y-14075216D02*
X9155195Y-14084740D01*
X9155195Y-14084740D02*
X9145671Y-14094264D01*
X9145671Y-14094264D02*
X9136147Y-14084740D01*
X9136147Y-14084740D02*
X9145671Y-14075216D01*
X9145671Y-14075216D02*
X9145671Y-14094264D01*
X9279005Y-13894264D02*
X9298052Y-13894264D01*
X9298052Y-13894264D02*
X9317100Y-13903788D01*
X9317100Y-13903788D02*
X9326624Y-13913311D01*
X9326624Y-13913311D02*
X9336147Y-13932359D01*
X9336147Y-13932359D02*
X9345671Y-13970454D01*
X9345671Y-13970454D02*
X9345671Y-14018073D01*
X9345671Y-14018073D02*
X9336147Y-14056168D01*
X9336147Y-14056168D02*
X9326624Y-14075216D01*
X9326624Y-14075216D02*
X9317100Y-14084740D01*
X9317100Y-14084740D02*
X9298052Y-14094264D01*
X9298052Y-14094264D02*
X9279005Y-14094264D01*
X9279005Y-14094264D02*
X9259957Y-14084740D01*
X9259957Y-14084740D02*
X9250433Y-14075216D01*
X9250433Y-14075216D02*
X9240909Y-14056168D01*
X9240909Y-14056168D02*
X9231386Y-14018073D01*
X9231386Y-14018073D02*
X9231386Y-13970454D01*
X9231386Y-13970454D02*
X9240909Y-13932359D01*
X9240909Y-13932359D02*
X9250433Y-13913311D01*
X9250433Y-13913311D02*
X9259957Y-13903788D01*
X9259957Y-13903788D02*
X9279005Y-13894264D01*
X9469481Y-13894264D02*
X9488528Y-13894264D01*
X9488528Y-13894264D02*
X9507576Y-13903788D01*
X9507576Y-13903788D02*
X9517100Y-13913311D01*
X9517100Y-13913311D02*
X9526624Y-13932359D01*
X9526624Y-13932359D02*
X9536147Y-13970454D01*
X9536147Y-13970454D02*
X9536147Y-14018073D01*
X9536147Y-14018073D02*
X9526624Y-14056168D01*
X9526624Y-14056168D02*
X9517100Y-14075216D01*
X9517100Y-14075216D02*
X9507576Y-14084740D01*
X9507576Y-14084740D02*
X9488528Y-14094264D01*
X9488528Y-14094264D02*
X9469481Y-14094264D01*
X9469481Y-14094264D02*
X9450433Y-14084740D01*
X9450433Y-14084740D02*
X9440909Y-14075216D01*
X9440909Y-14075216D02*
X9431386Y-14056168D01*
X9431386Y-14056168D02*
X9421862Y-14018073D01*
X9421862Y-14018073D02*
X9421862Y-13970454D01*
X9421862Y-13970454D02*
X9431386Y-13932359D01*
X9431386Y-13932359D02*
X9440909Y-13913311D01*
X9440909Y-13913311D02*
X9450433Y-13903788D01*
X9450433Y-13903788D02*
X9469481Y-13894264D01*
X9659957Y-13894264D02*
X9679005Y-13894264D01*
X9679005Y-13894264D02*
X9698052Y-13903788D01*
X9698052Y-13903788D02*
X9707576Y-13913311D01*
X9707576Y-13913311D02*
X9717100Y-13932359D01*
X9717100Y-13932359D02*
X9726624Y-13970454D01*
X9726624Y-13970454D02*
X9726624Y-14018073D01*
X9726624Y-14018073D02*
X9717100Y-14056168D01*
X9717100Y-14056168D02*
X9707576Y-14075216D01*
X9707576Y-14075216D02*
X9698052Y-14084740D01*
X9698052Y-14084740D02*
X9679005Y-14094264D01*
X9679005Y-14094264D02*
X9659957Y-14094264D01*
X9659957Y-14094264D02*
X9640909Y-14084740D01*
X9640909Y-14084740D02*
X9631386Y-14075216D01*
X9631386Y-14075216D02*
X9621862Y-14056168D01*
X9621862Y-14056168D02*
X9612338Y-14018073D01*
X9612338Y-14018073D02*
X9612338Y-13970454D01*
X9612338Y-13970454D02*
X9621862Y-13932359D01*
X9621862Y-13932359D02*
X9631386Y-13913311D01*
X9631386Y-13913311D02*
X9640909Y-13903788D01*
X9640909Y-13903788D02*
X9659957Y-13894264D01*
X9812338Y-14094264D02*
X9812338Y-13960930D01*
X9812338Y-13979978D02*
X9821862Y-13970454D01*
X9821862Y-13970454D02*
X9840909Y-13960930D01*
X9840909Y-13960930D02*
X9869481Y-13960930D01*
X9869481Y-13960930D02*
X9888528Y-13970454D01*
X9888528Y-13970454D02*
X9898052Y-13989502D01*
X9898052Y-13989502D02*
X9898052Y-14094264D01*
X9898052Y-13989502D02*
X9907576Y-13970454D01*
X9907576Y-13970454D02*
X9926624Y-13960930D01*
X9926624Y-13960930D02*
X9955195Y-13960930D01*
X9955195Y-13960930D02*
X9974243Y-13970454D01*
X9974243Y-13970454D02*
X9983767Y-13989502D01*
X9983767Y-13989502D02*
X9983767Y-14094264D01*
X10079005Y-14094264D02*
X10079005Y-13960930D01*
X10079005Y-13979978D02*
X10088528Y-13970454D01*
X10088528Y-13970454D02*
X10107576Y-13960930D01*
X10107576Y-13960930D02*
X10136148Y-13960930D01*
X10136148Y-13960930D02*
X10155195Y-13970454D01*
X10155195Y-13970454D02*
X10164719Y-13989502D01*
X10164719Y-13989502D02*
X10164719Y-14094264D01*
X10164719Y-13989502D02*
X10174243Y-13970454D01*
X10174243Y-13970454D02*
X10193290Y-13960930D01*
X10193290Y-13960930D02*
X10221862Y-13960930D01*
X10221862Y-13960930D02*
X10240909Y-13970454D01*
X10240909Y-13970454D02*
X10250433Y-13989502D01*
X10250433Y-13989502D02*
X10250433Y-14094264D01*
X10640909Y-13884740D02*
X10469481Y-14141883D01*
X10898052Y-13894264D02*
X10917100Y-13894264D01*
X10917100Y-13894264D02*
X10936148Y-13903788D01*
X10936148Y-13903788D02*
X10945671Y-13913311D01*
X10945671Y-13913311D02*
X10955195Y-13932359D01*
X10955195Y-13932359D02*
X10964719Y-13970454D01*
X10964719Y-13970454D02*
X10964719Y-14018073D01*
X10964719Y-14018073D02*
X10955195Y-14056168D01*
X10955195Y-14056168D02*
X10945671Y-14075216D01*
X10945671Y-14075216D02*
X10936148Y-14084740D01*
X10936148Y-14084740D02*
X10917100Y-14094264D01*
X10917100Y-14094264D02*
X10898052Y-14094264D01*
X10898052Y-14094264D02*
X10879005Y-14084740D01*
X10879005Y-14084740D02*
X10869481Y-14075216D01*
X10869481Y-14075216D02*
X10859957Y-14056168D01*
X10859957Y-14056168D02*
X10850433Y-14018073D01*
X10850433Y-14018073D02*
X10850433Y-13970454D01*
X10850433Y-13970454D02*
X10859957Y-13932359D01*
X10859957Y-13932359D02*
X10869481Y-13913311D01*
X10869481Y-13913311D02*
X10879005Y-13903788D01*
X10879005Y-13903788D02*
X10898052Y-13894264D01*
X11050433Y-14075216D02*
X11059957Y-14084740D01*
X11059957Y-14084740D02*
X11050433Y-14094264D01*
X11050433Y-14094264D02*
X11040910Y-14084740D01*
X11040910Y-14084740D02*
X11050433Y-14075216D01*
X11050433Y-14075216D02*
X11050433Y-14094264D01*
X11183767Y-13894264D02*
X11202814Y-13894264D01*
X11202814Y-13894264D02*
X11221862Y-13903788D01*
X11221862Y-13903788D02*
X11231386Y-13913311D01*
X11231386Y-13913311D02*
X11240909Y-13932359D01*
X11240909Y-13932359D02*
X11250433Y-13970454D01*
X11250433Y-13970454D02*
X11250433Y-14018073D01*
X11250433Y-14018073D02*
X11240909Y-14056168D01*
X11240909Y-14056168D02*
X11231386Y-14075216D01*
X11231386Y-14075216D02*
X11221862Y-14084740D01*
X11221862Y-14084740D02*
X11202814Y-14094264D01*
X11202814Y-14094264D02*
X11183767Y-14094264D01*
X11183767Y-14094264D02*
X11164719Y-14084740D01*
X11164719Y-14084740D02*
X11155195Y-14075216D01*
X11155195Y-14075216D02*
X11145671Y-14056168D01*
X11145671Y-14056168D02*
X11136148Y-14018073D01*
X11136148Y-14018073D02*
X11136148Y-13970454D01*
X11136148Y-13970454D02*
X11145671Y-13932359D01*
X11145671Y-13932359D02*
X11155195Y-13913311D01*
X11155195Y-13913311D02*
X11164719Y-13903788D01*
X11164719Y-13903788D02*
X11183767Y-13894264D01*
X11317100Y-13894264D02*
X11440909Y-13894264D01*
X11440909Y-13894264D02*
X11374243Y-13970454D01*
X11374243Y-13970454D02*
X11402814Y-13970454D01*
X11402814Y-13970454D02*
X11421862Y-13979978D01*
X11421862Y-13979978D02*
X11431386Y-13989502D01*
X11431386Y-13989502D02*
X11440909Y-14008549D01*
X11440909Y-14008549D02*
X11440909Y-14056168D01*
X11440909Y-14056168D02*
X11431386Y-14075216D01*
X11431386Y-14075216D02*
X11421862Y-14084740D01*
X11421862Y-14084740D02*
X11402814Y-14094264D01*
X11402814Y-14094264D02*
X11345671Y-14094264D01*
X11345671Y-14094264D02*
X11326624Y-14084740D01*
X11326624Y-14084740D02*
X11317100Y-14075216D01*
X11536148Y-14094264D02*
X11574243Y-14094264D01*
X11574243Y-14094264D02*
X11593290Y-14084740D01*
X11593290Y-14084740D02*
X11602814Y-14075216D01*
X11602814Y-14075216D02*
X11621862Y-14046645D01*
X11621862Y-14046645D02*
X11631386Y-14008549D01*
X11631386Y-14008549D02*
X11631386Y-13932359D01*
X11631386Y-13932359D02*
X11621862Y-13913311D01*
X11621862Y-13913311D02*
X11612338Y-13903788D01*
X11612338Y-13903788D02*
X11593290Y-13894264D01*
X11593290Y-13894264D02*
X11555195Y-13894264D01*
X11555195Y-13894264D02*
X11536148Y-13903788D01*
X11536148Y-13903788D02*
X11526624Y-13913311D01*
X11526624Y-13913311D02*
X11517100Y-13932359D01*
X11517100Y-13932359D02*
X11517100Y-13979978D01*
X11517100Y-13979978D02*
X11526624Y-13999026D01*
X11526624Y-13999026D02*
X11536148Y-14008549D01*
X11536148Y-14008549D02*
X11555195Y-14018073D01*
X11555195Y-14018073D02*
X11593290Y-14018073D01*
X11593290Y-14018073D02*
X11612338Y-14008549D01*
X11612338Y-14008549D02*
X11621862Y-13999026D01*
X11621862Y-13999026D02*
X11631386Y-13979978D01*
X11802814Y-13960930D02*
X11802814Y-14094264D01*
X11755195Y-13884740D02*
X11707576Y-14027597D01*
X11707576Y-14027597D02*
X11831386Y-14027597D01*
X11898052Y-13894264D02*
X11898052Y-13932359D01*
X11974243Y-13894264D02*
X11974243Y-13932359D01*
X12269481Y-14170454D02*
X12259957Y-14160930D01*
X12259957Y-14160930D02*
X12240910Y-14132359D01*
X12240910Y-14132359D02*
X12231386Y-14113311D01*
X12231386Y-14113311D02*
X12221862Y-14084740D01*
X12221862Y-14084740D02*
X12212338Y-14037121D01*
X12212338Y-14037121D02*
X12212338Y-13999026D01*
X12212338Y-13999026D02*
X12221862Y-13951407D01*
X12221862Y-13951407D02*
X12231386Y-13922835D01*
X12231386Y-13922835D02*
X12240910Y-13903788D01*
X12240910Y-13903788D02*
X12259957Y-13875216D01*
X12259957Y-13875216D02*
X12269481Y-13865692D01*
X12374243Y-13979978D02*
X12355195Y-13970454D01*
X12355195Y-13970454D02*
X12345671Y-13960930D01*
X12345671Y-13960930D02*
X12336148Y-13941883D01*
X12336148Y-13941883D02*
X12336148Y-13932359D01*
X12336148Y-13932359D02*
X12345671Y-13913311D01*
X12345671Y-13913311D02*
X12355195Y-13903788D01*
X12355195Y-13903788D02*
X12374243Y-13894264D01*
X12374243Y-13894264D02*
X12412338Y-13894264D01*
X12412338Y-13894264D02*
X12431386Y-13903788D01*
X12431386Y-13903788D02*
X12440910Y-13913311D01*
X12440910Y-13913311D02*
X12450433Y-13932359D01*
X12450433Y-13932359D02*
X12450433Y-13941883D01*
X12450433Y-13941883D02*
X12440910Y-13960930D01*
X12440910Y-13960930D02*
X12431386Y-13970454D01*
X12431386Y-13970454D02*
X12412338Y-13979978D01*
X12412338Y-13979978D02*
X12374243Y-13979978D01*
X12374243Y-13979978D02*
X12355195Y-13989502D01*
X12355195Y-13989502D02*
X12345671Y-13999026D01*
X12345671Y-13999026D02*
X12336148Y-14018073D01*
X12336148Y-14018073D02*
X12336148Y-14056168D01*
X12336148Y-14056168D02*
X12345671Y-14075216D01*
X12345671Y-14075216D02*
X12355195Y-14084740D01*
X12355195Y-14084740D02*
X12374243Y-14094264D01*
X12374243Y-14094264D02*
X12412338Y-14094264D01*
X12412338Y-14094264D02*
X12431386Y-14084740D01*
X12431386Y-14084740D02*
X12440910Y-14075216D01*
X12440910Y-14075216D02*
X12450433Y-14056168D01*
X12450433Y-14056168D02*
X12450433Y-14018073D01*
X12450433Y-14018073D02*
X12440910Y-13999026D01*
X12440910Y-13999026D02*
X12431386Y-13989502D01*
X12431386Y-13989502D02*
X12412338Y-13979978D01*
X12640910Y-14094264D02*
X12526624Y-14094264D01*
X12583767Y-14094264D02*
X12583767Y-13894264D01*
X12583767Y-13894264D02*
X12564719Y-13922835D01*
X12564719Y-13922835D02*
X12545671Y-13941883D01*
X12545671Y-13941883D02*
X12526624Y-13951407D01*
X12879005Y-14094264D02*
X12879005Y-13894264D01*
X12964719Y-14094264D02*
X12964719Y-13989502D01*
X12964719Y-13989502D02*
X12955195Y-13970454D01*
X12955195Y-13970454D02*
X12936148Y-13960930D01*
X12936148Y-13960930D02*
X12907576Y-13960930D01*
X12907576Y-13960930D02*
X12888529Y-13970454D01*
X12888529Y-13970454D02*
X12879005Y-13979978D01*
X13088529Y-14094264D02*
X13069481Y-14084740D01*
X13069481Y-14084740D02*
X13059957Y-14075216D01*
X13059957Y-14075216D02*
X13050433Y-14056168D01*
X13050433Y-14056168D02*
X13050433Y-13999026D01*
X13050433Y-13999026D02*
X13059957Y-13979978D01*
X13059957Y-13979978D02*
X13069481Y-13970454D01*
X13069481Y-13970454D02*
X13088529Y-13960930D01*
X13088529Y-13960930D02*
X13117100Y-13960930D01*
X13117100Y-13960930D02*
X13136148Y-13970454D01*
X13136148Y-13970454D02*
X13145672Y-13979978D01*
X13145672Y-13979978D02*
X13155195Y-13999026D01*
X13155195Y-13999026D02*
X13155195Y-14056168D01*
X13155195Y-14056168D02*
X13145672Y-14075216D01*
X13145672Y-14075216D02*
X13136148Y-14084740D01*
X13136148Y-14084740D02*
X13117100Y-14094264D01*
X13117100Y-14094264D02*
X13088529Y-14094264D01*
X13269481Y-14094264D02*
X13250433Y-14084740D01*
X13250433Y-14084740D02*
X13240910Y-14065692D01*
X13240910Y-14065692D02*
X13240910Y-13894264D01*
X13421862Y-14084740D02*
X13402814Y-14094264D01*
X13402814Y-14094264D02*
X13364719Y-14094264D01*
X13364719Y-14094264D02*
X13345672Y-14084740D01*
X13345672Y-14084740D02*
X13336148Y-14065692D01*
X13336148Y-14065692D02*
X13336148Y-13989502D01*
X13336148Y-13989502D02*
X13345672Y-13970454D01*
X13345672Y-13970454D02*
X13364719Y-13960930D01*
X13364719Y-13960930D02*
X13402814Y-13960930D01*
X13402814Y-13960930D02*
X13421862Y-13970454D01*
X13421862Y-13970454D02*
X13431386Y-13989502D01*
X13431386Y-13989502D02*
X13431386Y-14008549D01*
X13431386Y-14008549D02*
X13336148Y-14027597D01*
X13507576Y-14084740D02*
X13526624Y-14094264D01*
X13526624Y-14094264D02*
X13564719Y-14094264D01*
X13564719Y-14094264D02*
X13583767Y-14084740D01*
X13583767Y-14084740D02*
X13593291Y-14065692D01*
X13593291Y-14065692D02*
X13593291Y-14056168D01*
X13593291Y-14056168D02*
X13583767Y-14037121D01*
X13583767Y-14037121D02*
X13564719Y-14027597D01*
X13564719Y-14027597D02*
X13536148Y-14027597D01*
X13536148Y-14027597D02*
X13517100Y-14018073D01*
X13517100Y-14018073D02*
X13507576Y-13999026D01*
X13507576Y-13999026D02*
X13507576Y-13989502D01*
X13507576Y-13989502D02*
X13517100Y-13970454D01*
X13517100Y-13970454D02*
X13536148Y-13960930D01*
X13536148Y-13960930D02*
X13564719Y-13960930D01*
X13564719Y-13960930D02*
X13583767Y-13970454D01*
X13659957Y-14170454D02*
X13669481Y-14160930D01*
X13669481Y-14160930D02*
X13688529Y-14132359D01*
X13688529Y-14132359D02*
X13698053Y-14113311D01*
X13698053Y-14113311D02*
X13707576Y-14084740D01*
X13707576Y-14084740D02*
X13717100Y-14037121D01*
X13717100Y-14037121D02*
X13717100Y-13999026D01*
X13717100Y-13999026D02*
X13707576Y-13951407D01*
X13707576Y-13951407D02*
X13698053Y-13922835D01*
X13698053Y-13922835D02*
X13688529Y-13903788D01*
X13688529Y-13903788D02*
X13669481Y-13875216D01*
X13669481Y-13875216D02*
X13659957Y-13865692D01*
M02*
