G04 #@! TF.GenerationSoftware,KiCad,Pcbnew,8.0.3*
G04 #@! TF.CreationDate,2024-07-30T16:09:55+10:00*
G04 #@! TF.ProjectId,colecovision_controller,636f6c65-636f-4766-9973-696f6e5f636f,rev?*
G04 #@! TF.SameCoordinates,Original*
G04 #@! TF.FileFunction,Soldermask,Top*
G04 #@! TF.FilePolarity,Negative*
%FSLAX46Y46*%
G04 Gerber Fmt 4.6, Leading zero omitted, Abs format (unit mm)*
G04 Created by KiCad (PCBNEW 8.0.3) date 2024-07-30 16:09:55*
%MOMM*%
%LPD*%
G01*
G04 APERTURE LIST*
G04 Aperture macros list*
%AMRoundRect*
0 Rectangle with rounded corners*
0 $1 Rounding radius*
0 $2 $3 $4 $5 $6 $7 $8 $9 X,Y pos of 4 corners*
0 Add a 4 corners polygon primitive as box body*
4,1,4,$2,$3,$4,$5,$6,$7,$8,$9,$2,$3,0*
0 Add four circle primitives for the rounded corners*
1,1,$1+$1,$2,$3*
1,1,$1+$1,$4,$5*
1,1,$1+$1,$6,$7*
1,1,$1+$1,$8,$9*
0 Add four rect primitives between the rounded corners*
20,1,$1+$1,$2,$3,$4,$5,0*
20,1,$1+$1,$4,$5,$6,$7,0*
20,1,$1+$1,$6,$7,$8,$9,0*
20,1,$1+$1,$8,$9,$2,$3,0*%
G04 Aperture macros list end*
%ADD10RoundRect,0.250000X0.450000X-0.325000X0.450000X0.325000X-0.450000X0.325000X-0.450000X-0.325000X0*%
%ADD11C,4.300000*%
%ADD12C,1.700000*%
%ADD13C,2.700000*%
%ADD14R,1.700000X1.700000*%
%ADD15O,1.700000X1.700000*%
G04 APERTURE END LIST*
D10*
X115189000Y-101200000D03*
X115189000Y-99150000D03*
X146177000Y-86877000D03*
X146177000Y-84827000D03*
X134493000Y-86877000D03*
X134493000Y-84827000D03*
X157607000Y-86877000D03*
X157607000Y-84827000D03*
X181737000Y-112785000D03*
X181737000Y-110735000D03*
X96520000Y-103641000D03*
X96520000Y-101591000D03*
X149098000Y-86877000D03*
X149098000Y-84827000D03*
X143256000Y-86877000D03*
X143256000Y-84827000D03*
X137384000Y-86700000D03*
X137384000Y-84650000D03*
X163449000Y-86877000D03*
X163449000Y-84827000D03*
X166243000Y-86877000D03*
X166243000Y-84827000D03*
X154813000Y-86877000D03*
X154813000Y-84827000D03*
X160528000Y-86877000D03*
X160528000Y-84827000D03*
X119888000Y-86877000D03*
X119888000Y-84827000D03*
X125730000Y-86877000D03*
X125730000Y-84827000D03*
X122809000Y-86877000D03*
X122809000Y-84827000D03*
X128651000Y-86877000D03*
X128651000Y-84827000D03*
X116967000Y-86877000D03*
X116967000Y-84827000D03*
X110871000Y-86877000D03*
X110871000Y-84827000D03*
X177546000Y-120913000D03*
X177546000Y-118863000D03*
X152019000Y-86877000D03*
X152019000Y-84827000D03*
X92075000Y-101591000D03*
X92075000Y-103641000D03*
X172085000Y-86877000D03*
X172085000Y-84827000D03*
X131572000Y-86877000D03*
X131572000Y-84827000D03*
X140335000Y-86877000D03*
X140335000Y-84827000D03*
X110490000Y-101200000D03*
X110490000Y-99150000D03*
D11*
X121539000Y-116332000D03*
D12*
X169418000Y-120015000D03*
X169418000Y-113515000D03*
X173918000Y-120015000D03*
X173918000Y-113515000D03*
D11*
X160020000Y-116332000D03*
X193929000Y-125730000D03*
D12*
X189865000Y-105172000D03*
X189865000Y-111672000D03*
X185365000Y-105172000D03*
X185365000Y-111672000D03*
D11*
X160020000Y-95885000D03*
X97790000Y-82677000D03*
D13*
X103378000Y-108422000D03*
D12*
X101128000Y-120523000D03*
X101128000Y-114023000D03*
X105628000Y-120523000D03*
X105628000Y-114023000D03*
X101128000Y-102870000D03*
X101128000Y-96370000D03*
X105628000Y-102870000D03*
X105628000Y-96370000D03*
X148463000Y-100076000D03*
X148463000Y-93576000D03*
X152963000Y-100076000D03*
X152963000Y-93576000D03*
X148463000Y-117263332D03*
X148463000Y-110763332D03*
X152963000Y-117263332D03*
X152963000Y-110763332D03*
X148463000Y-125857000D03*
X148463000Y-119357000D03*
X152963000Y-125857000D03*
X152963000Y-119357000D03*
D11*
X121539000Y-95885000D03*
D12*
X138430000Y-125984000D03*
X138430000Y-119484000D03*
X142930000Y-125984000D03*
X142930000Y-119484000D03*
X128016000Y-108796666D03*
X128016000Y-102296666D03*
X132516000Y-108796666D03*
X132516000Y-102296666D03*
X128016000Y-100203000D03*
X128016000Y-93703000D03*
X132516000Y-100203000D03*
X132516000Y-93703000D03*
X128016000Y-117390332D03*
X128016000Y-110890332D03*
X132516000Y-117390332D03*
X132516000Y-110890332D03*
X148463000Y-108669666D03*
X148463000Y-102169666D03*
X152963000Y-108669666D03*
X152963000Y-102169666D03*
D11*
X92710000Y-125730000D03*
D12*
X138430000Y-117348000D03*
X138430000Y-110848000D03*
X142930000Y-117348000D03*
X142930000Y-110848000D03*
D10*
X169164000Y-86877000D03*
X169164000Y-84827000D03*
D14*
X178816000Y-76073000D03*
D15*
X178816000Y-78613000D03*
X178816000Y-81153000D03*
X178816000Y-83693000D03*
X178816000Y-86233000D03*
X178816000Y-88773000D03*
X178816000Y-91313000D03*
X178816000Y-93853000D03*
X178816000Y-96393000D03*
D12*
X92202000Y-111672000D03*
X92202000Y-105172000D03*
X96702000Y-111672000D03*
X96702000Y-105172000D03*
X138430000Y-100076000D03*
X138430000Y-93576000D03*
X142930000Y-100076000D03*
X142930000Y-93576000D03*
X138430000Y-108712000D03*
X138430000Y-102212000D03*
X142930000Y-108712000D03*
X142930000Y-102212000D03*
X128016000Y-125984000D03*
X128016000Y-119484000D03*
X132516000Y-125984000D03*
X132516000Y-119484000D03*
D11*
X187833000Y-82677000D03*
D12*
X114554000Y-105172000D03*
X114554000Y-111672000D03*
X110054000Y-105172000D03*
X110054000Y-111672000D03*
D10*
X113919000Y-86877000D03*
X113919000Y-84827000D03*
M02*
