G04 #@! TF.GenerationSoftware,KiCad,Pcbnew,8.0.3*
G04 #@! TF.CreationDate,2024-07-30T16:09:55+10:00*
G04 #@! TF.ProjectId,colecovision_controller,636f6c65-636f-4766-9973-696f6e5f636f,rev?*
G04 #@! TF.SameCoordinates,Original*
G04 #@! TF.FileFunction,Copper,L2,Bot*
G04 #@! TF.FilePolarity,Positive*
%FSLAX46Y46*%
G04 Gerber Fmt 4.6, Leading zero omitted, Abs format (unit mm)*
G04 Created by KiCad (PCBNEW 8.0.3) date 2024-07-30 16:09:55*
%MOMM*%
%LPD*%
G01*
G04 APERTURE LIST*
G04 #@! TA.AperFunction,ComponentPad*
%ADD10C,1.700000*%
G04 #@! TD*
G04 #@! TA.AperFunction,ComponentPad*
%ADD11R,1.700000X1.700000*%
G04 #@! TD*
G04 #@! TA.AperFunction,ComponentPad*
%ADD12O,1.700000X1.700000*%
G04 #@! TD*
G04 #@! TA.AperFunction,ViaPad*
%ADD13C,2.438400*%
G04 #@! TD*
G04 #@! TA.AperFunction,Conductor*
%ADD14C,0.533400*%
G04 #@! TD*
G04 APERTURE END LIST*
D10*
X169418000Y-120015000D03*
X169418000Y-113515000D03*
X173918000Y-120015000D03*
X173918000Y-113515000D03*
X189865000Y-105172000D03*
X189865000Y-111672000D03*
X185365000Y-105172000D03*
X185365000Y-111672000D03*
X101128000Y-120523000D03*
X101128000Y-114023000D03*
X105628000Y-120523000D03*
X105628000Y-114023000D03*
X101128000Y-102870000D03*
X101128000Y-96370000D03*
X105628000Y-102870000D03*
X105628000Y-96370000D03*
X148463000Y-100076000D03*
X148463000Y-93576000D03*
X152963000Y-100076000D03*
X152963000Y-93576000D03*
X148463000Y-117263332D03*
X148463000Y-110763332D03*
X152963000Y-117263332D03*
X152963000Y-110763332D03*
X148463000Y-125857000D03*
X148463000Y-119357000D03*
X152963000Y-125857000D03*
X152963000Y-119357000D03*
X138430000Y-125984000D03*
X138430000Y-119484000D03*
X142930000Y-125984000D03*
X142930000Y-119484000D03*
X128016000Y-108796666D03*
X128016000Y-102296666D03*
X132516000Y-108796666D03*
X132516000Y-102296666D03*
X128016000Y-100203000D03*
X128016000Y-93703000D03*
X132516000Y-100203000D03*
X132516000Y-93703000D03*
X128016000Y-117390332D03*
X128016000Y-110890332D03*
X132516000Y-117390332D03*
X132516000Y-110890332D03*
X148463000Y-108669666D03*
X148463000Y-102169666D03*
X152963000Y-108669666D03*
X152963000Y-102169666D03*
X138430000Y-117348000D03*
X138430000Y-110848000D03*
X142930000Y-117348000D03*
X142930000Y-110848000D03*
D11*
X178816000Y-76073000D03*
D12*
X178816000Y-78613000D03*
X178816000Y-81153000D03*
X178816000Y-83693000D03*
X178816000Y-86233000D03*
X178816000Y-88773000D03*
X178816000Y-91313000D03*
X178816000Y-93853000D03*
X178816000Y-96393000D03*
D10*
X92202000Y-111672000D03*
X92202000Y-105172000D03*
X96702000Y-111672000D03*
X96702000Y-105172000D03*
X138430000Y-100076000D03*
X138430000Y-93576000D03*
X142930000Y-100076000D03*
X142930000Y-93576000D03*
X138430000Y-108712000D03*
X138430000Y-102212000D03*
X142930000Y-108712000D03*
X142930000Y-102212000D03*
X128016000Y-125984000D03*
X128016000Y-119484000D03*
X132516000Y-125984000D03*
X132516000Y-119484000D03*
X114554000Y-105172000D03*
X114554000Y-111672000D03*
X110054000Y-105172000D03*
X110054000Y-111672000D03*
D13*
X136884000Y-76952300D03*
X130384000Y-75675000D03*
X140384000Y-82175000D03*
X148884000Y-82175000D03*
X148884000Y-73894950D03*
X174384000Y-76948300D03*
X120384000Y-100175000D03*
X126193031Y-88580901D03*
X132365072Y-89159857D03*
X120384000Y-104675000D03*
X134884000Y-91175000D03*
X139694966Y-88864034D03*
X128884000Y-82448300D03*
X117367366Y-80391306D03*
X166384000Y-92175000D03*
X145609686Y-107722322D03*
X163563031Y-89977901D03*
X150765900Y-123774316D03*
X154884000Y-82175000D03*
X166384000Y-82175000D03*
X135884000Y-110521132D03*
X143384000Y-89398600D03*
X109276534Y-95782466D03*
X160384000Y-79175000D03*
X142884000Y-79448300D03*
X132219700Y-80675000D03*
X175491466Y-83426300D03*
X148884000Y-77175000D03*
X117614700Y-77175000D03*
X159884000Y-109675000D03*
X114384000Y-116675000D03*
X108621118Y-102648186D03*
X106705725Y-107119213D03*
X122884000Y-80175000D03*
X115384000Y-94448300D03*
D14*
X114384000Y-115425000D02*
X114384000Y-116675000D01*
X119134000Y-110675000D02*
X114384000Y-115425000D01*
X125107863Y-110675000D02*
X119134000Y-110675000D01*
X127227295Y-112794432D02*
X125107863Y-110675000D01*
X156764568Y-112794432D02*
X127227295Y-112794432D01*
X159884000Y-109675000D02*
X156764568Y-112794432D01*
X162485234Y-104073766D02*
X149258242Y-104073766D01*
X149258242Y-104073766D02*
X145609686Y-107722322D01*
X163563031Y-89977901D02*
X163563031Y-102995969D01*
X163563031Y-102995969D02*
X162485234Y-104073766D01*
X165884000Y-122675000D02*
X151865216Y-122675000D01*
X166384000Y-122175000D02*
X165884000Y-122675000D01*
X151865216Y-122675000D02*
X150765900Y-123774316D01*
X166384000Y-92175000D02*
X166384000Y-122175000D01*
X129825632Y-80175000D02*
X122884000Y-80175000D01*
X131157300Y-83389932D02*
X131157300Y-81506668D01*
X129778132Y-84769100D02*
X131157300Y-83389932D01*
X126789900Y-84769100D02*
X129778132Y-84769100D01*
X117110700Y-94448300D02*
X126789900Y-84769100D01*
X115384000Y-94448300D02*
X117110700Y-94448300D01*
X131157300Y-81506668D02*
X129825632Y-80175000D01*
X136606700Y-76675000D02*
X136884000Y-76952300D01*
X131384000Y-76675000D02*
X136606700Y-76675000D01*
X130384000Y-75675000D02*
X131384000Y-76675000D01*
X136776534Y-80699640D02*
X140301174Y-77175000D01*
X140301174Y-77175000D02*
X148884000Y-77175000D01*
X134072694Y-77995800D02*
X136776534Y-80699640D01*
X130825568Y-78854200D02*
X131683968Y-77995800D01*
X131683968Y-77995800D02*
X134072694Y-77995800D01*
X123825632Y-77901700D02*
X124778132Y-78854200D01*
X121942368Y-77901700D02*
X123825632Y-77901700D01*
X119614700Y-79175000D02*
X120669068Y-79175000D01*
X120669068Y-79175000D02*
X121942368Y-77901700D01*
X117614700Y-77175000D02*
X119614700Y-79175000D01*
X124778132Y-78854200D02*
X130825568Y-78854200D01*
X139895768Y-79448300D02*
X142884000Y-79448300D01*
X136884000Y-82460068D02*
X139895768Y-79448300D01*
X136884000Y-82675000D02*
X136884000Y-82460068D01*
X133446400Y-79448300D02*
X132219700Y-80675000D01*
X133657300Y-79448300D02*
X133446400Y-79448300D01*
X136884000Y-82675000D02*
X133657300Y-79448300D01*
X132219700Y-80675000D02*
X131719700Y-80175000D01*
X131719700Y-80175000D02*
X122884000Y-80175000D01*
X140384000Y-82175000D02*
X148884000Y-82175000D01*
X148884000Y-82175000D02*
X154884000Y-82175000D01*
X171330650Y-73894950D02*
X148884000Y-73894950D01*
X174384000Y-76948300D02*
X171330650Y-73894950D01*
X172384000Y-81175000D02*
X170384000Y-79175000D01*
X173240166Y-81175000D02*
X172384000Y-81175000D01*
X170384000Y-79175000D02*
X160384000Y-79175000D01*
X175491466Y-83426300D02*
X173240166Y-81175000D01*
X124205700Y-90568232D02*
X124205700Y-96989583D01*
X126193031Y-88580901D02*
X124205700Y-90568232D01*
X121020283Y-100175000D02*
X120384000Y-100175000D01*
X124205700Y-96989583D02*
X121020283Y-100175000D01*
X126111900Y-98947100D02*
X120384000Y-104675000D01*
X126111900Y-91675000D02*
X126111900Y-98947100D01*
X129849929Y-91675000D02*
X126111900Y-91675000D01*
X132365072Y-89159857D02*
X129849929Y-91675000D01*
X134884000Y-91175000D02*
X137194966Y-88864034D01*
X137194966Y-88864034D02*
X139694966Y-88864034D01*
X135884000Y-98814805D02*
X135884000Y-110521132D01*
X141025900Y-93672905D02*
X135884000Y-98814805D01*
X141025900Y-91756700D02*
X141025900Y-93672905D01*
X143384000Y-89398600D02*
X141025900Y-91756700D01*
X119424360Y-82448300D02*
X128884000Y-82448300D01*
X117367366Y-80391306D02*
X119424360Y-82448300D01*
X116651060Y-79675000D02*
X117367366Y-80391306D01*
X108884000Y-79675000D02*
X116651060Y-79675000D01*
X108884000Y-95389932D02*
X108884000Y-79675000D01*
X109276534Y-95782466D02*
X108884000Y-95389932D01*
X166384000Y-82175000D02*
X154884000Y-82175000D01*
X166384000Y-86653805D02*
X166384000Y-82175000D01*
X178027295Y-98297100D02*
X166384000Y-86653805D01*
X179604705Y-98297100D02*
X178027295Y-98297100D01*
X180720100Y-97181705D02*
X179604705Y-98297100D01*
X180720100Y-79315019D02*
X180720100Y-97181705D01*
X180018081Y-78613000D02*
X180720100Y-79315019D01*
X178816000Y-78613000D02*
X180018081Y-78613000D01*
X160110700Y-79448300D02*
X142884000Y-79448300D01*
X160384000Y-79175000D02*
X160110700Y-79448300D01*
X108621118Y-102937882D02*
X108621118Y-102648186D01*
X107532100Y-106292838D02*
X107532100Y-104026900D01*
X106705725Y-107119213D02*
X107532100Y-106292838D01*
X107532100Y-104026900D02*
X108621118Y-102937882D01*
M02*
