G04 #@! TF.GenerationSoftware,KiCad,Pcbnew,8.0.3*
G04 #@! TF.CreationDate,2024-07-30T16:09:55+10:00*
G04 #@! TF.ProjectId,colecovision_controller,636f6c65-636f-4766-9973-696f6e5f636f,rev?*
G04 #@! TF.SameCoordinates,Original*
G04 #@! TF.FileFunction,Copper,L1,Top*
G04 #@! TF.FilePolarity,Positive*
%FSLAX46Y46*%
G04 Gerber Fmt 4.6, Leading zero omitted, Abs format (unit mm)*
G04 Created by KiCad (PCBNEW 8.0.3) date 2024-07-30 16:09:55*
%MOMM*%
%LPD*%
G01*
G04 APERTURE LIST*
G04 Aperture macros list*
%AMRoundRect*
0 Rectangle with rounded corners*
0 $1 Rounding radius*
0 $2 $3 $4 $5 $6 $7 $8 $9 X,Y pos of 4 corners*
0 Add a 4 corners polygon primitive as box body*
4,1,4,$2,$3,$4,$5,$6,$7,$8,$9,$2,$3,0*
0 Add four circle primitives for the rounded corners*
1,1,$1+$1,$2,$3*
1,1,$1+$1,$4,$5*
1,1,$1+$1,$6,$7*
1,1,$1+$1,$8,$9*
0 Add four rect primitives between the rounded corners*
20,1,$1+$1,$2,$3,$4,$5,0*
20,1,$1+$1,$4,$5,$6,$7,0*
20,1,$1+$1,$6,$7,$8,$9,0*
20,1,$1+$1,$8,$9,$2,$3,0*%
G04 Aperture macros list end*
G04 #@! TA.AperFunction,SMDPad,CuDef*
%ADD10RoundRect,0.250000X0.450000X-0.325000X0.450000X0.325000X-0.450000X0.325000X-0.450000X-0.325000X0*%
G04 #@! TD*
G04 #@! TA.AperFunction,ComponentPad*
%ADD11C,1.700000*%
G04 #@! TD*
G04 #@! TA.AperFunction,ComponentPad*
%ADD12R,1.700000X1.700000*%
G04 #@! TD*
G04 #@! TA.AperFunction,ComponentPad*
%ADD13O,1.700000X1.700000*%
G04 #@! TD*
G04 #@! TA.AperFunction,ViaPad*
%ADD14C,2.438400*%
G04 #@! TD*
G04 #@! TA.AperFunction,Conductor*
%ADD15C,0.533400*%
G04 #@! TD*
G04 #@! TA.AperFunction,Conductor*
%ADD16C,0.381000*%
G04 #@! TD*
G04 APERTURE END LIST*
D10*
X115189000Y-101200000D03*
X115189000Y-99150000D03*
X146177000Y-86877000D03*
X146177000Y-84827000D03*
X134493000Y-86877000D03*
X134493000Y-84827000D03*
X157607000Y-86877000D03*
X157607000Y-84827000D03*
X181737000Y-112785000D03*
X181737000Y-110735000D03*
X96520000Y-103641000D03*
X96520000Y-101591000D03*
X149098000Y-86877000D03*
X149098000Y-84827000D03*
X143256000Y-86877000D03*
X143256000Y-84827000D03*
X137384000Y-86700000D03*
X137384000Y-84650000D03*
X163449000Y-86877000D03*
X163449000Y-84827000D03*
X166243000Y-86877000D03*
X166243000Y-84827000D03*
X154813000Y-86877000D03*
X154813000Y-84827000D03*
X160528000Y-86877000D03*
X160528000Y-84827000D03*
X119888000Y-86877000D03*
X119888000Y-84827000D03*
X125730000Y-86877000D03*
X125730000Y-84827000D03*
X122809000Y-86877000D03*
X122809000Y-84827000D03*
X128651000Y-86877000D03*
X128651000Y-84827000D03*
X116967000Y-86877000D03*
X116967000Y-84827000D03*
X110871000Y-86877000D03*
X110871000Y-84827000D03*
X177546000Y-120913000D03*
X177546000Y-118863000D03*
X152019000Y-86877000D03*
X152019000Y-84827000D03*
X92075000Y-101591000D03*
X92075000Y-103641000D03*
X172085000Y-86877000D03*
X172085000Y-84827000D03*
X131572000Y-86877000D03*
X131572000Y-84827000D03*
X140335000Y-86877000D03*
X140335000Y-84827000D03*
X110490000Y-101200000D03*
X110490000Y-99150000D03*
D11*
X169418000Y-120015000D03*
X169418000Y-113515000D03*
X173918000Y-120015000D03*
X173918000Y-113515000D03*
X189865000Y-105172000D03*
X189865000Y-111672000D03*
X185365000Y-105172000D03*
X185365000Y-111672000D03*
X101128000Y-120523000D03*
X101128000Y-114023000D03*
X105628000Y-120523000D03*
X105628000Y-114023000D03*
X101128000Y-102870000D03*
X101128000Y-96370000D03*
X105628000Y-102870000D03*
X105628000Y-96370000D03*
X148463000Y-100076000D03*
X148463000Y-93576000D03*
X152963000Y-100076000D03*
X152963000Y-93576000D03*
X148463000Y-117263332D03*
X148463000Y-110763332D03*
X152963000Y-117263332D03*
X152963000Y-110763332D03*
X148463000Y-125857000D03*
X148463000Y-119357000D03*
X152963000Y-125857000D03*
X152963000Y-119357000D03*
X138430000Y-125984000D03*
X138430000Y-119484000D03*
X142930000Y-125984000D03*
X142930000Y-119484000D03*
X128016000Y-108796666D03*
X128016000Y-102296666D03*
X132516000Y-108796666D03*
X132516000Y-102296666D03*
X128016000Y-100203000D03*
X128016000Y-93703000D03*
X132516000Y-100203000D03*
X132516000Y-93703000D03*
X128016000Y-117390332D03*
X128016000Y-110890332D03*
X132516000Y-117390332D03*
X132516000Y-110890332D03*
X148463000Y-108669666D03*
X148463000Y-102169666D03*
X152963000Y-108669666D03*
X152963000Y-102169666D03*
X138430000Y-117348000D03*
X138430000Y-110848000D03*
X142930000Y-117348000D03*
X142930000Y-110848000D03*
D10*
X169164000Y-86877000D03*
X169164000Y-84827000D03*
D12*
X178816000Y-76073000D03*
D13*
X178816000Y-78613000D03*
X178816000Y-81153000D03*
X178816000Y-83693000D03*
X178816000Y-86233000D03*
X178816000Y-88773000D03*
X178816000Y-91313000D03*
X178816000Y-93853000D03*
X178816000Y-96393000D03*
D11*
X92202000Y-111672000D03*
X92202000Y-105172000D03*
X96702000Y-111672000D03*
X96702000Y-105172000D03*
X138430000Y-100076000D03*
X138430000Y-93576000D03*
X142930000Y-100076000D03*
X142930000Y-93576000D03*
X138430000Y-108712000D03*
X138430000Y-102212000D03*
X142930000Y-108712000D03*
X142930000Y-102212000D03*
X128016000Y-125984000D03*
X128016000Y-119484000D03*
X132516000Y-125984000D03*
X132516000Y-119484000D03*
X114554000Y-105172000D03*
X114554000Y-111672000D03*
X110054000Y-105172000D03*
X110054000Y-111672000D03*
D10*
X113919000Y-86877000D03*
X113919000Y-84827000D03*
D14*
X136884000Y-76952300D03*
X130384000Y-75675000D03*
X140384000Y-82175000D03*
X148884000Y-82175000D03*
X148884000Y-73894950D03*
X174384000Y-76948300D03*
X120384000Y-100175000D03*
X126193031Y-88580901D03*
X132365072Y-89159857D03*
X120384000Y-104675000D03*
X134884000Y-91175000D03*
X139694966Y-88864034D03*
X128884000Y-82448300D03*
X117367366Y-80391306D03*
X166384000Y-92175000D03*
X145609686Y-107722322D03*
X163563031Y-89977901D03*
X150765900Y-123774316D03*
X154884000Y-82175000D03*
X166384000Y-82175000D03*
X135884000Y-110521132D03*
X143384000Y-89398600D03*
X109276534Y-95782466D03*
X160384000Y-79175000D03*
X142884000Y-79448300D03*
X132219700Y-80675000D03*
X175491466Y-83426300D03*
X148884000Y-77175000D03*
X117614700Y-77175000D03*
X159884000Y-109675000D03*
X114384000Y-116675000D03*
X108621118Y-102648186D03*
X106705725Y-107119213D03*
X122884000Y-80175000D03*
X115384000Y-94448300D03*
D15*
X169224000Y-113515000D02*
X169418000Y-113515000D01*
X168384000Y-112675000D02*
X169224000Y-113515000D01*
X159884000Y-109675000D02*
X162884000Y-112675000D01*
X162884000Y-112675000D02*
X168384000Y-112675000D01*
X92075000Y-101591000D02*
X92075000Y-95984000D01*
X92075000Y-95984000D02*
X113380000Y-74679000D01*
X113380000Y-74679000D02*
X119888000Y-74679000D01*
X96520000Y-94039000D02*
X96520000Y-101591000D01*
X112657300Y-77901700D02*
X96520000Y-94039000D01*
X113884000Y-77901700D02*
X112657300Y-77901700D01*
X104940100Y-112118900D02*
X106705725Y-110353275D01*
X104839295Y-112118900D02*
X104940100Y-112118900D01*
X106705725Y-110353275D02*
X106705725Y-107119213D01*
X103723900Y-113234295D02*
X104839295Y-112118900D01*
X103723900Y-113335100D02*
X103723900Y-113234295D01*
X101128000Y-114023000D02*
X103036000Y-114023000D01*
X103036000Y-114023000D02*
X103723900Y-113335100D01*
X124205700Y-108496700D02*
X120384000Y-104675000D01*
X125884000Y-111675000D02*
X124205700Y-109996700D01*
X125884000Y-118554081D02*
X125884000Y-111675000D01*
X126813919Y-119484000D02*
X125884000Y-118554081D01*
X124205700Y-109996700D02*
X124205700Y-108496700D01*
X128016000Y-119484000D02*
X126813919Y-119484000D01*
X115189000Y-99150000D02*
X115189000Y-94643300D01*
X115189000Y-94643300D02*
X115384000Y-94448300D01*
X110171000Y-84827000D02*
X110871000Y-84827000D01*
X113919000Y-84827000D02*
X113919000Y-77936700D01*
X116888000Y-77901700D02*
X113884000Y-77901700D01*
X113919000Y-77936700D02*
X113884000Y-77901700D01*
X117614700Y-77175000D02*
X116888000Y-77901700D01*
X136884000Y-76952300D02*
X140384000Y-80452300D01*
X140384000Y-80452300D02*
X140384000Y-82175000D01*
X128884000Y-77175000D02*
X130384000Y-75675000D01*
X128884000Y-82448300D02*
X128884000Y-77175000D01*
X132880000Y-73175000D02*
X134493000Y-74788000D01*
X128884000Y-73175000D02*
X132880000Y-73175000D01*
X125384000Y-74679000D02*
X127380000Y-74679000D01*
X127380000Y-74679000D02*
X128884000Y-73175000D01*
X131572000Y-81322700D02*
X131572000Y-84827000D01*
X132219700Y-80675000D02*
X131572000Y-81322700D01*
X140384000Y-82175000D02*
X140384000Y-84778000D01*
X140384000Y-84778000D02*
X140335000Y-84827000D01*
X155977900Y-88506100D02*
X157607000Y-86877000D01*
X148463000Y-93515302D02*
X153472202Y-88506100D01*
X153472202Y-88506100D02*
X155977900Y-88506100D01*
X148463000Y-93576000D02*
X148463000Y-93515302D01*
X151058900Y-101000100D02*
X149889334Y-102169666D01*
X149889334Y-102169666D02*
X148463000Y-102169666D01*
X151058900Y-92787295D02*
X151058900Y-101000100D01*
X155126970Y-91671900D02*
X152174295Y-91671900D01*
X155868470Y-90930400D02*
X155126970Y-91671900D01*
X159395600Y-90930400D02*
X155868470Y-90930400D01*
X163449000Y-86877000D02*
X159395600Y-90930400D01*
X152174295Y-91671900D02*
X151058900Y-92787295D01*
X163449000Y-84827000D02*
X163449000Y-74740000D01*
X163384000Y-74675000D02*
X157884000Y-74675000D01*
X169384000Y-74675000D02*
X163384000Y-74675000D01*
X163449000Y-74740000D02*
X163384000Y-74675000D01*
X149098000Y-82389000D02*
X148884000Y-82175000D01*
X149098000Y-84827000D02*
X149098000Y-82389000D01*
X147664050Y-73894950D02*
X146384000Y-75175000D01*
X148884000Y-73894950D02*
X147664050Y-73894950D01*
X174406000Y-76970300D02*
X174384000Y-76948300D01*
X174406000Y-81153000D02*
X174406000Y-76970300D01*
X134493000Y-74788000D02*
X134384000Y-74679000D01*
X134384000Y-74679000D02*
X145888000Y-74679000D01*
X134493000Y-84827000D02*
X134493000Y-74788000D01*
X128016000Y-117390332D02*
X128016000Y-110890332D01*
X126111900Y-109902900D02*
X127099332Y-110890332D01*
X127099332Y-110890332D02*
X128016000Y-110890332D01*
X120384000Y-100175000D02*
X126111900Y-105902900D01*
X126111900Y-105902900D02*
X126111900Y-109902900D01*
X125730000Y-88117870D02*
X126193031Y-88580901D01*
X125730000Y-86877000D02*
X125730000Y-88117870D01*
X132365072Y-89159857D02*
X130082215Y-86877000D01*
X130082215Y-86877000D02*
X128651000Y-86877000D01*
X139694966Y-87517034D02*
X140335000Y-86877000D01*
X139694966Y-88864034D02*
X139694966Y-87517034D01*
X134884000Y-99868081D02*
X134884000Y-91175000D01*
X137227919Y-102212000D02*
X134884000Y-99868081D01*
X138430000Y-102212000D02*
X137227919Y-102212000D01*
X143256000Y-89270600D02*
X143256000Y-86877000D01*
X143384000Y-89398600D02*
X143256000Y-89270600D01*
X128884000Y-84594000D02*
X128651000Y-84827000D01*
X128884000Y-82448300D02*
X128884000Y-84594000D01*
X117367366Y-84426634D02*
X116967000Y-84827000D01*
X117367366Y-80391306D02*
X117367366Y-84426634D01*
X169164000Y-89395000D02*
X166384000Y-92175000D01*
X169164000Y-86877000D02*
X169164000Y-89395000D01*
D16*
X177613919Y-86233000D02*
X178816000Y-86233000D01*
X168171919Y-95675000D02*
X177613919Y-86233000D01*
X162384000Y-92175000D02*
X165884000Y-95675000D01*
X156384000Y-92175000D02*
X162384000Y-92175000D01*
X154983000Y-93576000D02*
X156384000Y-92175000D01*
X165884000Y-95675000D02*
X168171919Y-95675000D01*
X152963000Y-93576000D02*
X154983000Y-93576000D01*
D15*
X147260919Y-110763332D02*
X148463000Y-110763332D01*
X145609686Y-109112099D02*
X147260919Y-110763332D01*
X145609686Y-107722322D02*
X145609686Y-109112099D01*
X163563031Y-89556969D02*
X163563031Y-89977901D01*
X163664500Y-89455500D02*
X163563031Y-89556969D01*
X166243000Y-86877000D02*
X163664500Y-89455500D01*
X150765900Y-123774316D02*
X150545684Y-123774316D01*
X150545684Y-123774316D02*
X148463000Y-125857000D01*
X172085000Y-86877000D02*
X169164000Y-86877000D01*
X154884000Y-82175000D02*
X154884000Y-84756000D01*
X154884000Y-84756000D02*
X154813000Y-84827000D01*
X166384000Y-84686000D02*
X166243000Y-84827000D01*
X166384000Y-82175000D02*
X166384000Y-84686000D01*
X135884000Y-110521132D02*
X136210868Y-110848000D01*
X136210868Y-110848000D02*
X138430000Y-110848000D01*
X142141295Y-91671900D02*
X140334100Y-93479095D01*
X140334100Y-93479095D02*
X140334100Y-118136705D01*
X147224100Y-91671900D02*
X142141295Y-91671900D01*
X138986805Y-119484000D02*
X138430000Y-119484000D01*
X152019000Y-86877000D02*
X147224100Y-91671900D01*
X140334100Y-118136705D02*
X138986805Y-119484000D01*
X148463000Y-108669666D02*
X148463000Y-102169666D01*
X148463000Y-93576000D02*
X148463000Y-100076000D01*
X110490000Y-96995932D02*
X109276534Y-95782466D01*
X110490000Y-99150000D02*
X110490000Y-96995932D01*
X160528000Y-79319000D02*
X160384000Y-79175000D01*
X160528000Y-84827000D02*
X160528000Y-79319000D01*
X143256000Y-79820300D02*
X142884000Y-79448300D01*
X143256000Y-84827000D02*
X143256000Y-79820300D01*
X175758166Y-83693000D02*
X175491466Y-83426300D01*
X178816000Y-83693000D02*
X175758166Y-83693000D01*
X138430000Y-93576000D02*
X138430000Y-100076000D01*
X137384000Y-86700000D02*
X140158000Y-86700000D01*
X140158000Y-86700000D02*
X140335000Y-86877000D01*
X138430000Y-90814000D02*
X134493000Y-86877000D01*
X138430000Y-93576000D02*
X138430000Y-90814000D01*
X148884000Y-77175000D02*
X152019000Y-77175000D01*
X152019000Y-77175000D02*
X152019000Y-84827000D01*
X152019000Y-75810000D02*
X152019000Y-77175000D01*
X114384000Y-116002000D02*
X110054000Y-111672000D01*
X114384000Y-116675000D02*
X114384000Y-116002000D01*
X174406000Y-81153000D02*
X172085000Y-83474000D01*
X178816000Y-81153000D02*
X174406000Y-81153000D01*
X172085000Y-83474000D02*
X172085000Y-84827000D01*
X152384000Y-75445000D02*
X152019000Y-75810000D01*
X152384000Y-74675000D02*
X152384000Y-75445000D01*
X157884000Y-74675000D02*
X152384000Y-74675000D01*
X157884000Y-77175000D02*
X157607000Y-77452000D01*
X157884000Y-74675000D02*
X157884000Y-77175000D01*
X169384000Y-74675000D02*
X169384000Y-78235000D01*
X177884000Y-74675000D02*
X169384000Y-74675000D01*
X178816000Y-75607000D02*
X177884000Y-74675000D01*
X169384000Y-78235000D02*
X169164000Y-78455000D01*
X178816000Y-76073000D02*
X178816000Y-75607000D01*
X134493000Y-84827000D02*
X137207000Y-84827000D01*
X137207000Y-84827000D02*
X137384000Y-84650000D01*
X125730000Y-84827000D02*
X125730000Y-75025000D01*
X125730000Y-75025000D02*
X125384000Y-74679000D01*
X119888000Y-74679000D02*
X125384000Y-74679000D01*
X146177000Y-75382000D02*
X146177000Y-84827000D01*
X146384000Y-75175000D02*
X146177000Y-75382000D01*
X145888000Y-74679000D02*
X146384000Y-75175000D01*
X119888000Y-74679000D02*
X119888000Y-84827000D01*
D16*
X152963000Y-128096000D02*
X152963000Y-125857000D01*
X152884000Y-128175000D02*
X152963000Y-128096000D01*
X142884000Y-128175000D02*
X152884000Y-128175000D01*
X142930000Y-127629000D02*
X142930000Y-125984000D01*
X142884000Y-127675000D02*
X142930000Y-127629000D01*
X132884000Y-128175000D02*
X142884000Y-128175000D01*
X142884000Y-128175000D02*
X142884000Y-127675000D01*
X132516000Y-127807000D02*
X132884000Y-128175000D01*
X132516000Y-125984000D02*
X132516000Y-127807000D01*
D15*
X174206000Y-93853000D02*
X178816000Y-93853000D01*
X169418000Y-98641000D02*
X174206000Y-93853000D01*
X169418000Y-113515000D02*
X169418000Y-98641000D01*
X169418000Y-120015000D02*
X169418000Y-113515000D01*
X173918000Y-113515000D02*
X173918000Y-120015000D01*
X177546000Y-120913000D02*
X174816000Y-120913000D01*
X174816000Y-120913000D02*
X173918000Y-120015000D01*
X179444000Y-110735000D02*
X181737000Y-110735000D01*
X178384000Y-110675000D02*
X179384000Y-110675000D01*
X177546000Y-111513000D02*
X178384000Y-110675000D01*
X179384000Y-110675000D02*
X179444000Y-110735000D01*
X177546000Y-118863000D02*
X177546000Y-111513000D01*
X180018081Y-88773000D02*
X178816000Y-88773000D01*
X181737000Y-90491919D02*
X180018081Y-88773000D01*
X181737000Y-110735000D02*
X181737000Y-90491919D01*
X185365000Y-111672000D02*
X184252000Y-112785000D01*
X184252000Y-112785000D02*
X181737000Y-112785000D01*
X185365000Y-105172000D02*
X185365000Y-111672000D01*
D16*
X189865000Y-105172000D02*
X189865000Y-111672000D01*
X189865000Y-93194000D02*
X189865000Y-105172000D01*
X189884000Y-92175000D02*
X189884000Y-93175000D01*
X185960081Y-92175000D02*
X189884000Y-92175000D01*
X189884000Y-93175000D02*
X189865000Y-93194000D01*
X180018081Y-86233000D02*
X185960081Y-92175000D01*
X178816000Y-86233000D02*
X180018081Y-86233000D01*
D15*
X160528000Y-86877000D02*
X157607000Y-86877000D01*
X154813000Y-86877000D02*
X152019000Y-86877000D01*
X143256000Y-86877000D02*
X149098000Y-86877000D01*
X131572000Y-86877000D02*
X128651000Y-86877000D01*
X122809000Y-86877000D02*
X125730000Y-86877000D01*
X130384000Y-93378195D02*
X130384000Y-102675000D01*
X127860005Y-90854200D02*
X130384000Y-93378195D01*
X130384000Y-102675000D02*
X130005666Y-102296666D01*
X130005666Y-102296666D02*
X128016000Y-102296666D01*
X123865200Y-90854200D02*
X127860005Y-90854200D01*
X119888000Y-86877000D02*
X123865200Y-90854200D01*
X116967000Y-86877000D02*
X119888000Y-86877000D01*
X113919000Y-86877000D02*
X116967000Y-86877000D01*
X110871000Y-89662000D02*
X110871000Y-86877000D01*
X113384000Y-92175000D02*
X110871000Y-89662000D01*
X126488000Y-92175000D02*
X113384000Y-92175000D01*
X128016000Y-93703000D02*
X126488000Y-92175000D01*
X128016000Y-100203000D02*
X128016000Y-93703000D01*
X128016000Y-108796666D02*
X128016000Y-102296666D01*
D16*
X152963000Y-100076000D02*
X152963000Y-93576000D01*
X142930000Y-93576000D02*
X142930000Y-100076000D01*
X142930000Y-102212000D02*
X142930000Y-100076000D01*
D15*
X138430000Y-108712000D02*
X138430000Y-102212000D01*
X138430000Y-117348000D02*
X138430000Y-110848000D01*
D16*
X152963000Y-102169666D02*
X152963000Y-100076000D01*
X152963000Y-108669666D02*
X152963000Y-102169666D01*
X152963000Y-110763332D02*
X152963000Y-108669666D01*
D15*
X148463000Y-117263332D02*
X148463000Y-110763332D01*
D16*
X152963000Y-117263332D02*
X152963000Y-110763332D01*
X152963000Y-119357000D02*
X152963000Y-117263332D01*
X152963000Y-125857000D02*
X152963000Y-119357000D01*
D15*
X148463000Y-125857000D02*
X148463000Y-119357000D01*
D16*
X142930000Y-125984000D02*
X142930000Y-119484000D01*
D15*
X138430000Y-125984000D02*
X138430000Y-119484000D01*
D16*
X142930000Y-108712000D02*
X142930000Y-102212000D01*
X142930000Y-110848000D02*
X142930000Y-108712000D01*
X142930000Y-117348000D02*
X142930000Y-110848000D01*
X142930000Y-119484000D02*
X142930000Y-117348000D01*
X132516000Y-100203000D02*
X132516000Y-93703000D01*
X132516000Y-102296666D02*
X132516000Y-100203000D01*
X132516000Y-110890332D02*
X132516000Y-108796666D01*
X132516000Y-108796666D02*
X132516000Y-102296666D01*
X132516000Y-117390332D02*
X132516000Y-110890332D01*
X132516000Y-119484000D02*
X132516000Y-117390332D01*
X132516000Y-125984000D02*
X132516000Y-119484000D01*
D15*
X128016000Y-125984000D02*
X128016000Y-119484000D01*
X114554000Y-101835000D02*
X115189000Y-101200000D01*
X114554000Y-105172000D02*
X114554000Y-101835000D01*
X109041814Y-102648186D02*
X110490000Y-101200000D01*
X108621118Y-102648186D02*
X109041814Y-102648186D01*
X114554000Y-111672000D02*
X114554000Y-105172000D01*
X110054000Y-111672000D02*
X110054000Y-105270100D01*
X107703000Y-114023000D02*
X110054000Y-111672000D01*
X105628000Y-114023000D02*
X107703000Y-114023000D01*
X105628000Y-120523000D02*
X105628000Y-114023000D01*
X101128000Y-120523000D02*
X101128000Y-114023000D01*
X101128000Y-102870000D02*
X101128000Y-96370000D01*
X105628000Y-96370000D02*
X105628000Y-102870000D01*
X108028100Y-105270100D02*
X110054000Y-105270100D01*
X105628000Y-102870000D02*
X108028100Y-105270100D01*
X103788900Y-105270100D02*
X96702000Y-105270100D01*
X104384000Y-104675000D02*
X103788900Y-105270100D01*
X104384000Y-104114000D02*
X104384000Y-104675000D01*
X105628000Y-102870000D02*
X104384000Y-104114000D01*
X100730100Y-103267900D02*
X96893100Y-103267900D01*
X101128000Y-102870000D02*
X100730100Y-103267900D01*
X96702000Y-111672000D02*
X96702000Y-105270100D01*
X92202000Y-111672000D02*
X92202000Y-105172000D01*
X122884000Y-84752000D02*
X122809000Y-84827000D01*
X122884000Y-80175000D02*
X122884000Y-84752000D01*
X169164000Y-78455000D02*
X169164000Y-84827000D01*
X157607000Y-77452000D02*
X157607000Y-84827000D01*
X92202000Y-103768000D02*
X92075000Y-103641000D01*
X92202000Y-105172000D02*
X92202000Y-103768000D01*
X109116900Y-85881100D02*
X110171000Y-84827000D01*
X109116900Y-89907900D02*
X109116900Y-85881100D01*
X113657300Y-94448300D02*
X109116900Y-89907900D01*
X115384000Y-94448300D02*
X113657300Y-94448300D01*
M02*
