M48
; DRILL file {KiCad 8.0.3} date 2024-07-30T16:10:19+1000
; FORMAT={-:-/ absolute / metric / decimal}
; #@! TF.CreationDate,2024-07-30T16:10:19+10:00
; #@! TF.GenerationSoftware,Kicad,Pcbnew,8.0.3
; #@! TF.FileFunction,Plated,1,2,PTH
FMAT,2
METRIC
; #@! TA.AperFunction,Plated,PTH,ViaDrill
T1C0.813
; #@! TA.AperFunction,Plated,PTH,ComponentDrill
T2C1.000
%
G90
G05
T1
X106.706Y-107.119
X108.621Y-102.648
X109.277Y-95.782
X114.384Y-116.675
X115.384Y-94.448
X117.367Y-80.391
X117.615Y-77.175
X120.384Y-100.175
X120.384Y-104.675
X122.884Y-80.175
X126.193Y-88.581
X128.884Y-82.448
X130.384Y-75.675
X132.22Y-80.675
X132.365Y-89.16
X134.884Y-91.175
X135.884Y-110.521
X136.884Y-76.952
X139.695Y-88.864
X140.384Y-82.175
X142.884Y-79.448
X143.384Y-89.399
X145.61Y-107.722
X148.884Y-73.895
X148.884Y-77.175
X148.884Y-82.175
X150.766Y-123.774
X154.884Y-82.175
X159.884Y-109.675
X160.384Y-79.175
X163.563Y-89.978
X166.384Y-82.175
X166.384Y-92.175
X174.384Y-76.948
X175.491Y-83.426
T2
X92.202Y-105.172
X92.202Y-111.672
X96.702Y-105.172
X96.702Y-111.672
X101.128Y-96.37
X101.128Y-102.87
X101.128Y-114.023
X101.128Y-120.523
X105.628Y-96.37
X105.628Y-102.87
X105.628Y-114.023
X105.628Y-120.523
X110.054Y-105.172
X110.054Y-111.672
X114.554Y-105.172
X114.554Y-111.672
X128.016Y-93.703
X128.016Y-100.203
X128.016Y-102.297
X128.016Y-108.797
X128.016Y-110.89
X128.016Y-117.39
X128.016Y-119.484
X128.016Y-125.984
X132.516Y-93.703
X132.516Y-100.203
X132.516Y-102.297
X132.516Y-108.797
X132.516Y-110.89
X132.516Y-117.39
X132.516Y-119.484
X132.516Y-125.984
X138.43Y-93.576
X138.43Y-100.076
X138.43Y-102.212
X138.43Y-108.712
X138.43Y-110.848
X138.43Y-117.348
X138.43Y-119.484
X138.43Y-125.984
X142.93Y-93.576
X142.93Y-100.076
X142.93Y-102.212
X142.93Y-108.712
X142.93Y-110.848
X142.93Y-117.348
X142.93Y-119.484
X142.93Y-125.984
X148.463Y-93.576
X148.463Y-100.076
X148.463Y-102.17
X148.463Y-108.67
X148.463Y-110.763
X148.463Y-117.263
X148.463Y-119.357
X148.463Y-125.857
X152.963Y-93.576
X152.963Y-100.076
X152.963Y-102.17
X152.963Y-108.67
X152.963Y-110.763
X152.963Y-117.263
X152.963Y-119.357
X152.963Y-125.857
X169.418Y-113.515
X169.418Y-120.015
X173.918Y-113.515
X173.918Y-120.015
X178.816Y-76.073
X178.816Y-78.613
X178.816Y-81.153
X178.816Y-83.693
X178.816Y-86.233
X178.816Y-88.773
X178.816Y-91.313
X178.816Y-93.853
X178.816Y-96.393
X185.365Y-105.172
X185.365Y-111.672
X189.865Y-105.172
X189.865Y-111.672
M30
