%TF.GenerationSoftware,KiCad,Pcbnew,8.0.3*%
%TF.CreationDate,2024-07-30T16:10:22+10:00*%
%TF.ProjectId,colecovision_controller,636f6c65-636f-4766-9973-696f6e5f636f,rev?*%
%TF.SameCoordinates,Original*%
%TF.FileFunction,Drillmap*%
%TF.FilePolarity,Positive*%
%FSLAX45Y45*%
G04 Gerber Fmt 4.5, Leading zero omitted, Abs format (unit mm)*
G04 Created by KiCad (PCBNEW 8.0.3) date 2024-07-30 16:10:22*
%MOMM*%
%LPD*%
G01*
G04 APERTURE LIST*
%ADD10C,0.101600*%
%ADD11C,0.200000*%
%ADD12C,0.270000*%
%ADD13C,0.430000*%
G04 APERTURE END LIST*
D10*
X19939000Y-13093700D02*
X8699500Y-13093700D01*
X19939363Y-9766302D02*
X19939000Y-13093700D01*
X17360900Y-7188200D02*
G75*
G02*
X19939363Y-9766302I-12337J-2590802D01*
G01*
X8699500Y-13093700D02*
X8699498Y-9766663D01*
X8699498Y-9766663D02*
G75*
G02*
X11277600Y-7188200I2590802J-12337D01*
G01*
X11277600Y-7188200D02*
X17360900Y-7188200D01*
D11*
D12*
X10202800Y-10707200D02*
X10472800Y-10977200D01*
X10472800Y-10707200D02*
X10202800Y-10977200D01*
D13*
X9486000Y-12573000D02*
G75*
G02*
X9056000Y-12573000I-215000J0D01*
G01*
X9056000Y-12573000D02*
G75*
G02*
X9486000Y-12573000I215000J0D01*
G01*
X9994000Y-8267700D02*
G75*
G02*
X9564000Y-8267700I-215000J0D01*
G01*
X9564000Y-8267700D02*
G75*
G02*
X9994000Y-8267700I215000J0D01*
G01*
X12368900Y-9588500D02*
G75*
G02*
X11938900Y-9588500I-215000J0D01*
G01*
X11938900Y-9588500D02*
G75*
G02*
X12368900Y-9588500I215000J0D01*
G01*
X12368900Y-11633200D02*
G75*
G02*
X11938900Y-11633200I-215000J0D01*
G01*
X11938900Y-11633200D02*
G75*
G02*
X12368900Y-11633200I215000J0D01*
G01*
X16217000Y-9588500D02*
G75*
G02*
X15787000Y-9588500I-215000J0D01*
G01*
X15787000Y-9588500D02*
G75*
G02*
X16217000Y-9588500I215000J0D01*
G01*
X16217000Y-11633200D02*
G75*
G02*
X15787000Y-11633200I-215000J0D01*
G01*
X15787000Y-11633200D02*
G75*
G02*
X16217000Y-11633200I215000J0D01*
G01*
X18998300Y-8267700D02*
G75*
G02*
X18568300Y-8267700I-215000J0D01*
G01*
X18568300Y-8267700D02*
G75*
G02*
X18998300Y-8267700I215000J0D01*
G01*
X19607900Y-12573000D02*
G75*
G02*
X19177900Y-12573000I-215000J0D01*
G01*
X19177900Y-12573000D02*
G75*
G02*
X19607900Y-12573000I215000J0D01*
G01*
D11*
X8955195Y-13410264D02*
X8955195Y-13210264D01*
X8955195Y-13210264D02*
X9002814Y-13210264D01*
X9002814Y-13210264D02*
X9031386Y-13219788D01*
X9031386Y-13219788D02*
X9050433Y-13238835D01*
X9050433Y-13238835D02*
X9059957Y-13257883D01*
X9059957Y-13257883D02*
X9069481Y-13295978D01*
X9069481Y-13295978D02*
X9069481Y-13324549D01*
X9069481Y-13324549D02*
X9059957Y-13362645D01*
X9059957Y-13362645D02*
X9050433Y-13381692D01*
X9050433Y-13381692D02*
X9031386Y-13400740D01*
X9031386Y-13400740D02*
X9002814Y-13410264D01*
X9002814Y-13410264D02*
X8955195Y-13410264D01*
X9155195Y-13410264D02*
X9155195Y-13276930D01*
X9155195Y-13315026D02*
X9164719Y-13295978D01*
X9164719Y-13295978D02*
X9174243Y-13286454D01*
X9174243Y-13286454D02*
X9193290Y-13276930D01*
X9193290Y-13276930D02*
X9212338Y-13276930D01*
X9279005Y-13410264D02*
X9279005Y-13276930D01*
X9279005Y-13210264D02*
X9269481Y-13219788D01*
X9269481Y-13219788D02*
X9279005Y-13229311D01*
X9279005Y-13229311D02*
X9288528Y-13219788D01*
X9288528Y-13219788D02*
X9279005Y-13210264D01*
X9279005Y-13210264D02*
X9279005Y-13229311D01*
X9402814Y-13410264D02*
X9383766Y-13400740D01*
X9383766Y-13400740D02*
X9374243Y-13381692D01*
X9374243Y-13381692D02*
X9374243Y-13210264D01*
X9507576Y-13410264D02*
X9488528Y-13400740D01*
X9488528Y-13400740D02*
X9479005Y-13381692D01*
X9479005Y-13381692D02*
X9479005Y-13210264D01*
X9736147Y-13410264D02*
X9736147Y-13210264D01*
X9736147Y-13210264D02*
X9802814Y-13353121D01*
X9802814Y-13353121D02*
X9869481Y-13210264D01*
X9869481Y-13210264D02*
X9869481Y-13410264D01*
X10050433Y-13410264D02*
X10050433Y-13305502D01*
X10050433Y-13305502D02*
X10040909Y-13286454D01*
X10040909Y-13286454D02*
X10021862Y-13276930D01*
X10021862Y-13276930D02*
X9983766Y-13276930D01*
X9983766Y-13276930D02*
X9964719Y-13286454D01*
X10050433Y-13400740D02*
X10031386Y-13410264D01*
X10031386Y-13410264D02*
X9983766Y-13410264D01*
X9983766Y-13410264D02*
X9964719Y-13400740D01*
X9964719Y-13400740D02*
X9955195Y-13381692D01*
X9955195Y-13381692D02*
X9955195Y-13362645D01*
X9955195Y-13362645D02*
X9964719Y-13343597D01*
X9964719Y-13343597D02*
X9983766Y-13334073D01*
X9983766Y-13334073D02*
X10031386Y-13334073D01*
X10031386Y-13334073D02*
X10050433Y-13324549D01*
X10145671Y-13276930D02*
X10145671Y-13476930D01*
X10145671Y-13286454D02*
X10164719Y-13276930D01*
X10164719Y-13276930D02*
X10202814Y-13276930D01*
X10202814Y-13276930D02*
X10221862Y-13286454D01*
X10221862Y-13286454D02*
X10231386Y-13295978D01*
X10231386Y-13295978D02*
X10240909Y-13315026D01*
X10240909Y-13315026D02*
X10240909Y-13372168D01*
X10240909Y-13372168D02*
X10231386Y-13391216D01*
X10231386Y-13391216D02*
X10221862Y-13400740D01*
X10221862Y-13400740D02*
X10202814Y-13410264D01*
X10202814Y-13410264D02*
X10164719Y-13410264D01*
X10164719Y-13410264D02*
X10145671Y-13400740D01*
X10326624Y-13391216D02*
X10336147Y-13400740D01*
X10336147Y-13400740D02*
X10326624Y-13410264D01*
X10326624Y-13410264D02*
X10317100Y-13400740D01*
X10317100Y-13400740D02*
X10326624Y-13391216D01*
X10326624Y-13391216D02*
X10326624Y-13410264D01*
X10326624Y-13286454D02*
X10336147Y-13295978D01*
X10336147Y-13295978D02*
X10326624Y-13305502D01*
X10326624Y-13305502D02*
X10317100Y-13295978D01*
X10317100Y-13295978D02*
X10326624Y-13286454D01*
X10326624Y-13286454D02*
X10326624Y-13305502D01*
X8494418Y-13638780D02*
X8694418Y-13838780D01*
X8694418Y-13638780D02*
X8494418Y-13838780D01*
X8945671Y-13649311D02*
X8955195Y-13639788D01*
X8955195Y-13639788D02*
X8974243Y-13630264D01*
X8974243Y-13630264D02*
X9021862Y-13630264D01*
X9021862Y-13630264D02*
X9040909Y-13639788D01*
X9040909Y-13639788D02*
X9050433Y-13649311D01*
X9050433Y-13649311D02*
X9059957Y-13668359D01*
X9059957Y-13668359D02*
X9059957Y-13687407D01*
X9059957Y-13687407D02*
X9050433Y-13715978D01*
X9050433Y-13715978D02*
X8936147Y-13830264D01*
X8936147Y-13830264D02*
X9059957Y-13830264D01*
X9145671Y-13811216D02*
X9155195Y-13820740D01*
X9155195Y-13820740D02*
X9145671Y-13830264D01*
X9145671Y-13830264D02*
X9136147Y-13820740D01*
X9136147Y-13820740D02*
X9145671Y-13811216D01*
X9145671Y-13811216D02*
X9145671Y-13830264D01*
X9221862Y-13630264D02*
X9355195Y-13630264D01*
X9355195Y-13630264D02*
X9269481Y-13830264D01*
X9469481Y-13630264D02*
X9488528Y-13630264D01*
X9488528Y-13630264D02*
X9507576Y-13639788D01*
X9507576Y-13639788D02*
X9517100Y-13649311D01*
X9517100Y-13649311D02*
X9526624Y-13668359D01*
X9526624Y-13668359D02*
X9536147Y-13706454D01*
X9536147Y-13706454D02*
X9536147Y-13754073D01*
X9536147Y-13754073D02*
X9526624Y-13792168D01*
X9526624Y-13792168D02*
X9517100Y-13811216D01*
X9517100Y-13811216D02*
X9507576Y-13820740D01*
X9507576Y-13820740D02*
X9488528Y-13830264D01*
X9488528Y-13830264D02*
X9469481Y-13830264D01*
X9469481Y-13830264D02*
X9450433Y-13820740D01*
X9450433Y-13820740D02*
X9440909Y-13811216D01*
X9440909Y-13811216D02*
X9431386Y-13792168D01*
X9431386Y-13792168D02*
X9421862Y-13754073D01*
X9421862Y-13754073D02*
X9421862Y-13706454D01*
X9421862Y-13706454D02*
X9431386Y-13668359D01*
X9431386Y-13668359D02*
X9440909Y-13649311D01*
X9440909Y-13649311D02*
X9450433Y-13639788D01*
X9450433Y-13639788D02*
X9469481Y-13630264D01*
X9659957Y-13630264D02*
X9679005Y-13630264D01*
X9679005Y-13630264D02*
X9698052Y-13639788D01*
X9698052Y-13639788D02*
X9707576Y-13649311D01*
X9707576Y-13649311D02*
X9717100Y-13668359D01*
X9717100Y-13668359D02*
X9726624Y-13706454D01*
X9726624Y-13706454D02*
X9726624Y-13754073D01*
X9726624Y-13754073D02*
X9717100Y-13792168D01*
X9717100Y-13792168D02*
X9707576Y-13811216D01*
X9707576Y-13811216D02*
X9698052Y-13820740D01*
X9698052Y-13820740D02*
X9679005Y-13830264D01*
X9679005Y-13830264D02*
X9659957Y-13830264D01*
X9659957Y-13830264D02*
X9640909Y-13820740D01*
X9640909Y-13820740D02*
X9631386Y-13811216D01*
X9631386Y-13811216D02*
X9621862Y-13792168D01*
X9621862Y-13792168D02*
X9612338Y-13754073D01*
X9612338Y-13754073D02*
X9612338Y-13706454D01*
X9612338Y-13706454D02*
X9621862Y-13668359D01*
X9621862Y-13668359D02*
X9631386Y-13649311D01*
X9631386Y-13649311D02*
X9640909Y-13639788D01*
X9640909Y-13639788D02*
X9659957Y-13630264D01*
X9812338Y-13830264D02*
X9812338Y-13696930D01*
X9812338Y-13715978D02*
X9821862Y-13706454D01*
X9821862Y-13706454D02*
X9840909Y-13696930D01*
X9840909Y-13696930D02*
X9869481Y-13696930D01*
X9869481Y-13696930D02*
X9888528Y-13706454D01*
X9888528Y-13706454D02*
X9898052Y-13725502D01*
X9898052Y-13725502D02*
X9898052Y-13830264D01*
X9898052Y-13725502D02*
X9907576Y-13706454D01*
X9907576Y-13706454D02*
X9926624Y-13696930D01*
X9926624Y-13696930D02*
X9955195Y-13696930D01*
X9955195Y-13696930D02*
X9974243Y-13706454D01*
X9974243Y-13706454D02*
X9983767Y-13725502D01*
X9983767Y-13725502D02*
X9983767Y-13830264D01*
X10079005Y-13830264D02*
X10079005Y-13696930D01*
X10079005Y-13715978D02*
X10088528Y-13706454D01*
X10088528Y-13706454D02*
X10107576Y-13696930D01*
X10107576Y-13696930D02*
X10136148Y-13696930D01*
X10136148Y-13696930D02*
X10155195Y-13706454D01*
X10155195Y-13706454D02*
X10164719Y-13725502D01*
X10164719Y-13725502D02*
X10164719Y-13830264D01*
X10164719Y-13725502D02*
X10174243Y-13706454D01*
X10174243Y-13706454D02*
X10193290Y-13696930D01*
X10193290Y-13696930D02*
X10221862Y-13696930D01*
X10221862Y-13696930D02*
X10240909Y-13706454D01*
X10240909Y-13706454D02*
X10250433Y-13725502D01*
X10250433Y-13725502D02*
X10250433Y-13830264D01*
X10640909Y-13620740D02*
X10469481Y-13877883D01*
X10898052Y-13630264D02*
X10917100Y-13630264D01*
X10917100Y-13630264D02*
X10936148Y-13639788D01*
X10936148Y-13639788D02*
X10945671Y-13649311D01*
X10945671Y-13649311D02*
X10955195Y-13668359D01*
X10955195Y-13668359D02*
X10964719Y-13706454D01*
X10964719Y-13706454D02*
X10964719Y-13754073D01*
X10964719Y-13754073D02*
X10955195Y-13792168D01*
X10955195Y-13792168D02*
X10945671Y-13811216D01*
X10945671Y-13811216D02*
X10936148Y-13820740D01*
X10936148Y-13820740D02*
X10917100Y-13830264D01*
X10917100Y-13830264D02*
X10898052Y-13830264D01*
X10898052Y-13830264D02*
X10879005Y-13820740D01*
X10879005Y-13820740D02*
X10869481Y-13811216D01*
X10869481Y-13811216D02*
X10859957Y-13792168D01*
X10859957Y-13792168D02*
X10850433Y-13754073D01*
X10850433Y-13754073D02*
X10850433Y-13706454D01*
X10850433Y-13706454D02*
X10859957Y-13668359D01*
X10859957Y-13668359D02*
X10869481Y-13649311D01*
X10869481Y-13649311D02*
X10879005Y-13639788D01*
X10879005Y-13639788D02*
X10898052Y-13630264D01*
X11050433Y-13811216D02*
X11059957Y-13820740D01*
X11059957Y-13820740D02*
X11050433Y-13830264D01*
X11050433Y-13830264D02*
X11040910Y-13820740D01*
X11040910Y-13820740D02*
X11050433Y-13811216D01*
X11050433Y-13811216D02*
X11050433Y-13830264D01*
X11250433Y-13830264D02*
X11136148Y-13830264D01*
X11193290Y-13830264D02*
X11193290Y-13630264D01*
X11193290Y-13630264D02*
X11174243Y-13658835D01*
X11174243Y-13658835D02*
X11155195Y-13677883D01*
X11155195Y-13677883D02*
X11136148Y-13687407D01*
X11374243Y-13630264D02*
X11393290Y-13630264D01*
X11393290Y-13630264D02*
X11412338Y-13639788D01*
X11412338Y-13639788D02*
X11421862Y-13649311D01*
X11421862Y-13649311D02*
X11431386Y-13668359D01*
X11431386Y-13668359D02*
X11440909Y-13706454D01*
X11440909Y-13706454D02*
X11440909Y-13754073D01*
X11440909Y-13754073D02*
X11431386Y-13792168D01*
X11431386Y-13792168D02*
X11421862Y-13811216D01*
X11421862Y-13811216D02*
X11412338Y-13820740D01*
X11412338Y-13820740D02*
X11393290Y-13830264D01*
X11393290Y-13830264D02*
X11374243Y-13830264D01*
X11374243Y-13830264D02*
X11355195Y-13820740D01*
X11355195Y-13820740D02*
X11345671Y-13811216D01*
X11345671Y-13811216D02*
X11336148Y-13792168D01*
X11336148Y-13792168D02*
X11326624Y-13754073D01*
X11326624Y-13754073D02*
X11326624Y-13706454D01*
X11326624Y-13706454D02*
X11336148Y-13668359D01*
X11336148Y-13668359D02*
X11345671Y-13649311D01*
X11345671Y-13649311D02*
X11355195Y-13639788D01*
X11355195Y-13639788D02*
X11374243Y-13630264D01*
X11612338Y-13630264D02*
X11574243Y-13630264D01*
X11574243Y-13630264D02*
X11555195Y-13639788D01*
X11555195Y-13639788D02*
X11545671Y-13649311D01*
X11545671Y-13649311D02*
X11526624Y-13677883D01*
X11526624Y-13677883D02*
X11517100Y-13715978D01*
X11517100Y-13715978D02*
X11517100Y-13792168D01*
X11517100Y-13792168D02*
X11526624Y-13811216D01*
X11526624Y-13811216D02*
X11536148Y-13820740D01*
X11536148Y-13820740D02*
X11555195Y-13830264D01*
X11555195Y-13830264D02*
X11593290Y-13830264D01*
X11593290Y-13830264D02*
X11612338Y-13820740D01*
X11612338Y-13820740D02*
X11621862Y-13811216D01*
X11621862Y-13811216D02*
X11631386Y-13792168D01*
X11631386Y-13792168D02*
X11631386Y-13744549D01*
X11631386Y-13744549D02*
X11621862Y-13725502D01*
X11621862Y-13725502D02*
X11612338Y-13715978D01*
X11612338Y-13715978D02*
X11593290Y-13706454D01*
X11593290Y-13706454D02*
X11555195Y-13706454D01*
X11555195Y-13706454D02*
X11536148Y-13715978D01*
X11536148Y-13715978D02*
X11526624Y-13725502D01*
X11526624Y-13725502D02*
X11517100Y-13744549D01*
X11698052Y-13630264D02*
X11821862Y-13630264D01*
X11821862Y-13630264D02*
X11755195Y-13706454D01*
X11755195Y-13706454D02*
X11783767Y-13706454D01*
X11783767Y-13706454D02*
X11802814Y-13715978D01*
X11802814Y-13715978D02*
X11812338Y-13725502D01*
X11812338Y-13725502D02*
X11821862Y-13744549D01*
X11821862Y-13744549D02*
X11821862Y-13792168D01*
X11821862Y-13792168D02*
X11812338Y-13811216D01*
X11812338Y-13811216D02*
X11802814Y-13820740D01*
X11802814Y-13820740D02*
X11783767Y-13830264D01*
X11783767Y-13830264D02*
X11726624Y-13830264D01*
X11726624Y-13830264D02*
X11707576Y-13820740D01*
X11707576Y-13820740D02*
X11698052Y-13811216D01*
X11898052Y-13630264D02*
X11898052Y-13668359D01*
X11974243Y-13630264D02*
X11974243Y-13668359D01*
X12269481Y-13906454D02*
X12259957Y-13896930D01*
X12259957Y-13896930D02*
X12240910Y-13868359D01*
X12240910Y-13868359D02*
X12231386Y-13849311D01*
X12231386Y-13849311D02*
X12221862Y-13820740D01*
X12221862Y-13820740D02*
X12212338Y-13773121D01*
X12212338Y-13773121D02*
X12212338Y-13735026D01*
X12212338Y-13735026D02*
X12221862Y-13687407D01*
X12221862Y-13687407D02*
X12231386Y-13658835D01*
X12231386Y-13658835D02*
X12240910Y-13639788D01*
X12240910Y-13639788D02*
X12259957Y-13611216D01*
X12259957Y-13611216D02*
X12269481Y-13601692D01*
X12450433Y-13830264D02*
X12336148Y-13830264D01*
X12393290Y-13830264D02*
X12393290Y-13630264D01*
X12393290Y-13630264D02*
X12374243Y-13658835D01*
X12374243Y-13658835D02*
X12355195Y-13677883D01*
X12355195Y-13677883D02*
X12336148Y-13687407D01*
X12688529Y-13830264D02*
X12688529Y-13630264D01*
X12774243Y-13830264D02*
X12774243Y-13725502D01*
X12774243Y-13725502D02*
X12764719Y-13706454D01*
X12764719Y-13706454D02*
X12745672Y-13696930D01*
X12745672Y-13696930D02*
X12717100Y-13696930D01*
X12717100Y-13696930D02*
X12698052Y-13706454D01*
X12698052Y-13706454D02*
X12688529Y-13715978D01*
X12898052Y-13830264D02*
X12879005Y-13820740D01*
X12879005Y-13820740D02*
X12869481Y-13811216D01*
X12869481Y-13811216D02*
X12859957Y-13792168D01*
X12859957Y-13792168D02*
X12859957Y-13735026D01*
X12859957Y-13735026D02*
X12869481Y-13715978D01*
X12869481Y-13715978D02*
X12879005Y-13706454D01*
X12879005Y-13706454D02*
X12898052Y-13696930D01*
X12898052Y-13696930D02*
X12926624Y-13696930D01*
X12926624Y-13696930D02*
X12945672Y-13706454D01*
X12945672Y-13706454D02*
X12955195Y-13715978D01*
X12955195Y-13715978D02*
X12964719Y-13735026D01*
X12964719Y-13735026D02*
X12964719Y-13792168D01*
X12964719Y-13792168D02*
X12955195Y-13811216D01*
X12955195Y-13811216D02*
X12945672Y-13820740D01*
X12945672Y-13820740D02*
X12926624Y-13830264D01*
X12926624Y-13830264D02*
X12898052Y-13830264D01*
X13079005Y-13830264D02*
X13059957Y-13820740D01*
X13059957Y-13820740D02*
X13050433Y-13801692D01*
X13050433Y-13801692D02*
X13050433Y-13630264D01*
X13231386Y-13820740D02*
X13212338Y-13830264D01*
X13212338Y-13830264D02*
X13174243Y-13830264D01*
X13174243Y-13830264D02*
X13155195Y-13820740D01*
X13155195Y-13820740D02*
X13145672Y-13801692D01*
X13145672Y-13801692D02*
X13145672Y-13725502D01*
X13145672Y-13725502D02*
X13155195Y-13706454D01*
X13155195Y-13706454D02*
X13174243Y-13696930D01*
X13174243Y-13696930D02*
X13212338Y-13696930D01*
X13212338Y-13696930D02*
X13231386Y-13706454D01*
X13231386Y-13706454D02*
X13240910Y-13725502D01*
X13240910Y-13725502D02*
X13240910Y-13744549D01*
X13240910Y-13744549D02*
X13145672Y-13763597D01*
X13307576Y-13906454D02*
X13317100Y-13896930D01*
X13317100Y-13896930D02*
X13336148Y-13868359D01*
X13336148Y-13868359D02*
X13345672Y-13849311D01*
X13345672Y-13849311D02*
X13355195Y-13820740D01*
X13355195Y-13820740D02*
X13364719Y-13773121D01*
X13364719Y-13773121D02*
X13364719Y-13735026D01*
X13364719Y-13735026D02*
X13355195Y-13687407D01*
X13355195Y-13687407D02*
X13345672Y-13658835D01*
X13345672Y-13658835D02*
X13336148Y-13639788D01*
X13336148Y-13639788D02*
X13317100Y-13611216D01*
X13317100Y-13611216D02*
X13307576Y-13601692D01*
X13669481Y-13906454D02*
X13659957Y-13896930D01*
X13659957Y-13896930D02*
X13640910Y-13868359D01*
X13640910Y-13868359D02*
X13631386Y-13849311D01*
X13631386Y-13849311D02*
X13621862Y-13820740D01*
X13621862Y-13820740D02*
X13612338Y-13773121D01*
X13612338Y-13773121D02*
X13612338Y-13735026D01*
X13612338Y-13735026D02*
X13621862Y-13687407D01*
X13621862Y-13687407D02*
X13631386Y-13658835D01*
X13631386Y-13658835D02*
X13640910Y-13639788D01*
X13640910Y-13639788D02*
X13659957Y-13611216D01*
X13659957Y-13611216D02*
X13669481Y-13601692D01*
X13745672Y-13696930D02*
X13745672Y-13830264D01*
X13745672Y-13715978D02*
X13755195Y-13706454D01*
X13755195Y-13706454D02*
X13774243Y-13696930D01*
X13774243Y-13696930D02*
X13802814Y-13696930D01*
X13802814Y-13696930D02*
X13821862Y-13706454D01*
X13821862Y-13706454D02*
X13831386Y-13725502D01*
X13831386Y-13725502D02*
X13831386Y-13830264D01*
X13955195Y-13830264D02*
X13936148Y-13820740D01*
X13936148Y-13820740D02*
X13926624Y-13811216D01*
X13926624Y-13811216D02*
X13917100Y-13792168D01*
X13917100Y-13792168D02*
X13917100Y-13735026D01*
X13917100Y-13735026D02*
X13926624Y-13715978D01*
X13926624Y-13715978D02*
X13936148Y-13706454D01*
X13936148Y-13706454D02*
X13955195Y-13696930D01*
X13955195Y-13696930D02*
X13983767Y-13696930D01*
X13983767Y-13696930D02*
X14002814Y-13706454D01*
X14002814Y-13706454D02*
X14012338Y-13715978D01*
X14012338Y-13715978D02*
X14021862Y-13735026D01*
X14021862Y-13735026D02*
X14021862Y-13792168D01*
X14021862Y-13792168D02*
X14012338Y-13811216D01*
X14012338Y-13811216D02*
X14002814Y-13820740D01*
X14002814Y-13820740D02*
X13983767Y-13830264D01*
X13983767Y-13830264D02*
X13955195Y-13830264D01*
X14079005Y-13696930D02*
X14155195Y-13696930D01*
X14107576Y-13630264D02*
X14107576Y-13801692D01*
X14107576Y-13801692D02*
X14117100Y-13820740D01*
X14117100Y-13820740D02*
X14136148Y-13830264D01*
X14136148Y-13830264D02*
X14155195Y-13830264D01*
X14374243Y-13696930D02*
X14374243Y-13896930D01*
X14374243Y-13706454D02*
X14393291Y-13696930D01*
X14393291Y-13696930D02*
X14431386Y-13696930D01*
X14431386Y-13696930D02*
X14450434Y-13706454D01*
X14450434Y-13706454D02*
X14459957Y-13715978D01*
X14459957Y-13715978D02*
X14469481Y-13735026D01*
X14469481Y-13735026D02*
X14469481Y-13792168D01*
X14469481Y-13792168D02*
X14459957Y-13811216D01*
X14459957Y-13811216D02*
X14450434Y-13820740D01*
X14450434Y-13820740D02*
X14431386Y-13830264D01*
X14431386Y-13830264D02*
X14393291Y-13830264D01*
X14393291Y-13830264D02*
X14374243Y-13820740D01*
X14583767Y-13830264D02*
X14564719Y-13820740D01*
X14564719Y-13820740D02*
X14555195Y-13801692D01*
X14555195Y-13801692D02*
X14555195Y-13630264D01*
X14745672Y-13830264D02*
X14745672Y-13725502D01*
X14745672Y-13725502D02*
X14736148Y-13706454D01*
X14736148Y-13706454D02*
X14717100Y-13696930D01*
X14717100Y-13696930D02*
X14679005Y-13696930D01*
X14679005Y-13696930D02*
X14659957Y-13706454D01*
X14745672Y-13820740D02*
X14726624Y-13830264D01*
X14726624Y-13830264D02*
X14679005Y-13830264D01*
X14679005Y-13830264D02*
X14659957Y-13820740D01*
X14659957Y-13820740D02*
X14650434Y-13801692D01*
X14650434Y-13801692D02*
X14650434Y-13782645D01*
X14650434Y-13782645D02*
X14659957Y-13763597D01*
X14659957Y-13763597D02*
X14679005Y-13754073D01*
X14679005Y-13754073D02*
X14726624Y-13754073D01*
X14726624Y-13754073D02*
X14745672Y-13744549D01*
X14812338Y-13696930D02*
X14888529Y-13696930D01*
X14840910Y-13630264D02*
X14840910Y-13801692D01*
X14840910Y-13801692D02*
X14850434Y-13820740D01*
X14850434Y-13820740D02*
X14869481Y-13830264D01*
X14869481Y-13830264D02*
X14888529Y-13830264D01*
X15031386Y-13820740D02*
X15012338Y-13830264D01*
X15012338Y-13830264D02*
X14974243Y-13830264D01*
X14974243Y-13830264D02*
X14955195Y-13820740D01*
X14955195Y-13820740D02*
X14945672Y-13801692D01*
X14945672Y-13801692D02*
X14945672Y-13725502D01*
X14945672Y-13725502D02*
X14955195Y-13706454D01*
X14955195Y-13706454D02*
X14974243Y-13696930D01*
X14974243Y-13696930D02*
X15012338Y-13696930D01*
X15012338Y-13696930D02*
X15031386Y-13706454D01*
X15031386Y-13706454D02*
X15040910Y-13725502D01*
X15040910Y-13725502D02*
X15040910Y-13744549D01*
X15040910Y-13744549D02*
X14945672Y-13763597D01*
X15212338Y-13830264D02*
X15212338Y-13630264D01*
X15212338Y-13820740D02*
X15193291Y-13830264D01*
X15193291Y-13830264D02*
X15155195Y-13830264D01*
X15155195Y-13830264D02*
X15136148Y-13820740D01*
X15136148Y-13820740D02*
X15126624Y-13811216D01*
X15126624Y-13811216D02*
X15117100Y-13792168D01*
X15117100Y-13792168D02*
X15117100Y-13735026D01*
X15117100Y-13735026D02*
X15126624Y-13715978D01*
X15126624Y-13715978D02*
X15136148Y-13706454D01*
X15136148Y-13706454D02*
X15155195Y-13696930D01*
X15155195Y-13696930D02*
X15193291Y-13696930D01*
X15193291Y-13696930D02*
X15212338Y-13706454D01*
X15288529Y-13906454D02*
X15298053Y-13896930D01*
X15298053Y-13896930D02*
X15317100Y-13868359D01*
X15317100Y-13868359D02*
X15326624Y-13849311D01*
X15326624Y-13849311D02*
X15336148Y-13820740D01*
X15336148Y-13820740D02*
X15345672Y-13773121D01*
X15345672Y-13773121D02*
X15345672Y-13735026D01*
X15345672Y-13735026D02*
X15336148Y-13687407D01*
X15336148Y-13687407D02*
X15326624Y-13658835D01*
X15326624Y-13658835D02*
X15317100Y-13639788D01*
X15317100Y-13639788D02*
X15298053Y-13611216D01*
X15298053Y-13611216D02*
X15288529Y-13601692D01*
X8694418Y-14058780D02*
G75*
G02*
X8494418Y-14058780I-100000J0D01*
G01*
X8494418Y-14058780D02*
G75*
G02*
X8694418Y-14058780I100000J0D01*
G01*
X9040909Y-14016930D02*
X9040909Y-14150264D01*
X8993290Y-13940740D02*
X8945671Y-14083597D01*
X8945671Y-14083597D02*
X9069481Y-14083597D01*
X9145671Y-14131216D02*
X9155195Y-14140740D01*
X9155195Y-14140740D02*
X9145671Y-14150264D01*
X9145671Y-14150264D02*
X9136147Y-14140740D01*
X9136147Y-14140740D02*
X9145671Y-14131216D01*
X9145671Y-14131216D02*
X9145671Y-14150264D01*
X9221862Y-13950264D02*
X9345671Y-13950264D01*
X9345671Y-13950264D02*
X9279005Y-14026454D01*
X9279005Y-14026454D02*
X9307576Y-14026454D01*
X9307576Y-14026454D02*
X9326624Y-14035978D01*
X9326624Y-14035978D02*
X9336147Y-14045502D01*
X9336147Y-14045502D02*
X9345671Y-14064549D01*
X9345671Y-14064549D02*
X9345671Y-14112168D01*
X9345671Y-14112168D02*
X9336147Y-14131216D01*
X9336147Y-14131216D02*
X9326624Y-14140740D01*
X9326624Y-14140740D02*
X9307576Y-14150264D01*
X9307576Y-14150264D02*
X9250433Y-14150264D01*
X9250433Y-14150264D02*
X9231386Y-14140740D01*
X9231386Y-14140740D02*
X9221862Y-14131216D01*
X9469481Y-13950264D02*
X9488528Y-13950264D01*
X9488528Y-13950264D02*
X9507576Y-13959788D01*
X9507576Y-13959788D02*
X9517100Y-13969311D01*
X9517100Y-13969311D02*
X9526624Y-13988359D01*
X9526624Y-13988359D02*
X9536147Y-14026454D01*
X9536147Y-14026454D02*
X9536147Y-14074073D01*
X9536147Y-14074073D02*
X9526624Y-14112168D01*
X9526624Y-14112168D02*
X9517100Y-14131216D01*
X9517100Y-14131216D02*
X9507576Y-14140740D01*
X9507576Y-14140740D02*
X9488528Y-14150264D01*
X9488528Y-14150264D02*
X9469481Y-14150264D01*
X9469481Y-14150264D02*
X9450433Y-14140740D01*
X9450433Y-14140740D02*
X9440909Y-14131216D01*
X9440909Y-14131216D02*
X9431386Y-14112168D01*
X9431386Y-14112168D02*
X9421862Y-14074073D01*
X9421862Y-14074073D02*
X9421862Y-14026454D01*
X9421862Y-14026454D02*
X9431386Y-13988359D01*
X9431386Y-13988359D02*
X9440909Y-13969311D01*
X9440909Y-13969311D02*
X9450433Y-13959788D01*
X9450433Y-13959788D02*
X9469481Y-13950264D01*
X9659957Y-13950264D02*
X9679005Y-13950264D01*
X9679005Y-13950264D02*
X9698052Y-13959788D01*
X9698052Y-13959788D02*
X9707576Y-13969311D01*
X9707576Y-13969311D02*
X9717100Y-13988359D01*
X9717100Y-13988359D02*
X9726624Y-14026454D01*
X9726624Y-14026454D02*
X9726624Y-14074073D01*
X9726624Y-14074073D02*
X9717100Y-14112168D01*
X9717100Y-14112168D02*
X9707576Y-14131216D01*
X9707576Y-14131216D02*
X9698052Y-14140740D01*
X9698052Y-14140740D02*
X9679005Y-14150264D01*
X9679005Y-14150264D02*
X9659957Y-14150264D01*
X9659957Y-14150264D02*
X9640909Y-14140740D01*
X9640909Y-14140740D02*
X9631386Y-14131216D01*
X9631386Y-14131216D02*
X9621862Y-14112168D01*
X9621862Y-14112168D02*
X9612338Y-14074073D01*
X9612338Y-14074073D02*
X9612338Y-14026454D01*
X9612338Y-14026454D02*
X9621862Y-13988359D01*
X9621862Y-13988359D02*
X9631386Y-13969311D01*
X9631386Y-13969311D02*
X9640909Y-13959788D01*
X9640909Y-13959788D02*
X9659957Y-13950264D01*
X9812338Y-14150264D02*
X9812338Y-14016930D01*
X9812338Y-14035978D02*
X9821862Y-14026454D01*
X9821862Y-14026454D02*
X9840909Y-14016930D01*
X9840909Y-14016930D02*
X9869481Y-14016930D01*
X9869481Y-14016930D02*
X9888528Y-14026454D01*
X9888528Y-14026454D02*
X9898052Y-14045502D01*
X9898052Y-14045502D02*
X9898052Y-14150264D01*
X9898052Y-14045502D02*
X9907576Y-14026454D01*
X9907576Y-14026454D02*
X9926624Y-14016930D01*
X9926624Y-14016930D02*
X9955195Y-14016930D01*
X9955195Y-14016930D02*
X9974243Y-14026454D01*
X9974243Y-14026454D02*
X9983767Y-14045502D01*
X9983767Y-14045502D02*
X9983767Y-14150264D01*
X10079005Y-14150264D02*
X10079005Y-14016930D01*
X10079005Y-14035978D02*
X10088528Y-14026454D01*
X10088528Y-14026454D02*
X10107576Y-14016930D01*
X10107576Y-14016930D02*
X10136148Y-14016930D01*
X10136148Y-14016930D02*
X10155195Y-14026454D01*
X10155195Y-14026454D02*
X10164719Y-14045502D01*
X10164719Y-14045502D02*
X10164719Y-14150264D01*
X10164719Y-14045502D02*
X10174243Y-14026454D01*
X10174243Y-14026454D02*
X10193290Y-14016930D01*
X10193290Y-14016930D02*
X10221862Y-14016930D01*
X10221862Y-14016930D02*
X10240909Y-14026454D01*
X10240909Y-14026454D02*
X10250433Y-14045502D01*
X10250433Y-14045502D02*
X10250433Y-14150264D01*
X10640909Y-13940740D02*
X10469481Y-14197883D01*
X10898052Y-13950264D02*
X10917100Y-13950264D01*
X10917100Y-13950264D02*
X10936148Y-13959788D01*
X10936148Y-13959788D02*
X10945671Y-13969311D01*
X10945671Y-13969311D02*
X10955195Y-13988359D01*
X10955195Y-13988359D02*
X10964719Y-14026454D01*
X10964719Y-14026454D02*
X10964719Y-14074073D01*
X10964719Y-14074073D02*
X10955195Y-14112168D01*
X10955195Y-14112168D02*
X10945671Y-14131216D01*
X10945671Y-14131216D02*
X10936148Y-14140740D01*
X10936148Y-14140740D02*
X10917100Y-14150264D01*
X10917100Y-14150264D02*
X10898052Y-14150264D01*
X10898052Y-14150264D02*
X10879005Y-14140740D01*
X10879005Y-14140740D02*
X10869481Y-14131216D01*
X10869481Y-14131216D02*
X10859957Y-14112168D01*
X10859957Y-14112168D02*
X10850433Y-14074073D01*
X10850433Y-14074073D02*
X10850433Y-14026454D01*
X10850433Y-14026454D02*
X10859957Y-13988359D01*
X10859957Y-13988359D02*
X10869481Y-13969311D01*
X10869481Y-13969311D02*
X10879005Y-13959788D01*
X10879005Y-13959788D02*
X10898052Y-13950264D01*
X11050433Y-14131216D02*
X11059957Y-14140740D01*
X11059957Y-14140740D02*
X11050433Y-14150264D01*
X11050433Y-14150264D02*
X11040910Y-14140740D01*
X11040910Y-14140740D02*
X11050433Y-14131216D01*
X11050433Y-14131216D02*
X11050433Y-14150264D01*
X11250433Y-14150264D02*
X11136148Y-14150264D01*
X11193290Y-14150264D02*
X11193290Y-13950264D01*
X11193290Y-13950264D02*
X11174243Y-13978835D01*
X11174243Y-13978835D02*
X11155195Y-13997883D01*
X11155195Y-13997883D02*
X11136148Y-14007407D01*
X11421862Y-13950264D02*
X11383767Y-13950264D01*
X11383767Y-13950264D02*
X11364719Y-13959788D01*
X11364719Y-13959788D02*
X11355195Y-13969311D01*
X11355195Y-13969311D02*
X11336148Y-13997883D01*
X11336148Y-13997883D02*
X11326624Y-14035978D01*
X11326624Y-14035978D02*
X11326624Y-14112168D01*
X11326624Y-14112168D02*
X11336148Y-14131216D01*
X11336148Y-14131216D02*
X11345671Y-14140740D01*
X11345671Y-14140740D02*
X11364719Y-14150264D01*
X11364719Y-14150264D02*
X11402814Y-14150264D01*
X11402814Y-14150264D02*
X11421862Y-14140740D01*
X11421862Y-14140740D02*
X11431386Y-14131216D01*
X11431386Y-14131216D02*
X11440909Y-14112168D01*
X11440909Y-14112168D02*
X11440909Y-14064549D01*
X11440909Y-14064549D02*
X11431386Y-14045502D01*
X11431386Y-14045502D02*
X11421862Y-14035978D01*
X11421862Y-14035978D02*
X11402814Y-14026454D01*
X11402814Y-14026454D02*
X11364719Y-14026454D01*
X11364719Y-14026454D02*
X11345671Y-14035978D01*
X11345671Y-14035978D02*
X11336148Y-14045502D01*
X11336148Y-14045502D02*
X11326624Y-14064549D01*
X11536148Y-14150264D02*
X11574243Y-14150264D01*
X11574243Y-14150264D02*
X11593290Y-14140740D01*
X11593290Y-14140740D02*
X11602814Y-14131216D01*
X11602814Y-14131216D02*
X11621862Y-14102645D01*
X11621862Y-14102645D02*
X11631386Y-14064549D01*
X11631386Y-14064549D02*
X11631386Y-13988359D01*
X11631386Y-13988359D02*
X11621862Y-13969311D01*
X11621862Y-13969311D02*
X11612338Y-13959788D01*
X11612338Y-13959788D02*
X11593290Y-13950264D01*
X11593290Y-13950264D02*
X11555195Y-13950264D01*
X11555195Y-13950264D02*
X11536148Y-13959788D01*
X11536148Y-13959788D02*
X11526624Y-13969311D01*
X11526624Y-13969311D02*
X11517100Y-13988359D01*
X11517100Y-13988359D02*
X11517100Y-14035978D01*
X11517100Y-14035978D02*
X11526624Y-14055026D01*
X11526624Y-14055026D02*
X11536148Y-14064549D01*
X11536148Y-14064549D02*
X11555195Y-14074073D01*
X11555195Y-14074073D02*
X11593290Y-14074073D01*
X11593290Y-14074073D02*
X11612338Y-14064549D01*
X11612338Y-14064549D02*
X11621862Y-14055026D01*
X11621862Y-14055026D02*
X11631386Y-14035978D01*
X11698052Y-13950264D02*
X11821862Y-13950264D01*
X11821862Y-13950264D02*
X11755195Y-14026454D01*
X11755195Y-14026454D02*
X11783767Y-14026454D01*
X11783767Y-14026454D02*
X11802814Y-14035978D01*
X11802814Y-14035978D02*
X11812338Y-14045502D01*
X11812338Y-14045502D02*
X11821862Y-14064549D01*
X11821862Y-14064549D02*
X11821862Y-14112168D01*
X11821862Y-14112168D02*
X11812338Y-14131216D01*
X11812338Y-14131216D02*
X11802814Y-14140740D01*
X11802814Y-14140740D02*
X11783767Y-14150264D01*
X11783767Y-14150264D02*
X11726624Y-14150264D01*
X11726624Y-14150264D02*
X11707576Y-14140740D01*
X11707576Y-14140740D02*
X11698052Y-14131216D01*
X11898052Y-13950264D02*
X11898052Y-13988359D01*
X11974243Y-13950264D02*
X11974243Y-13988359D01*
X12269481Y-14226454D02*
X12259957Y-14216930D01*
X12259957Y-14216930D02*
X12240910Y-14188359D01*
X12240910Y-14188359D02*
X12231386Y-14169311D01*
X12231386Y-14169311D02*
X12221862Y-14140740D01*
X12221862Y-14140740D02*
X12212338Y-14093121D01*
X12212338Y-14093121D02*
X12212338Y-14055026D01*
X12212338Y-14055026D02*
X12221862Y-14007407D01*
X12221862Y-14007407D02*
X12231386Y-13978835D01*
X12231386Y-13978835D02*
X12240910Y-13959788D01*
X12240910Y-13959788D02*
X12259957Y-13931216D01*
X12259957Y-13931216D02*
X12269481Y-13921692D01*
X12374243Y-14035978D02*
X12355195Y-14026454D01*
X12355195Y-14026454D02*
X12345671Y-14016930D01*
X12345671Y-14016930D02*
X12336148Y-13997883D01*
X12336148Y-13997883D02*
X12336148Y-13988359D01*
X12336148Y-13988359D02*
X12345671Y-13969311D01*
X12345671Y-13969311D02*
X12355195Y-13959788D01*
X12355195Y-13959788D02*
X12374243Y-13950264D01*
X12374243Y-13950264D02*
X12412338Y-13950264D01*
X12412338Y-13950264D02*
X12431386Y-13959788D01*
X12431386Y-13959788D02*
X12440910Y-13969311D01*
X12440910Y-13969311D02*
X12450433Y-13988359D01*
X12450433Y-13988359D02*
X12450433Y-13997883D01*
X12450433Y-13997883D02*
X12440910Y-14016930D01*
X12440910Y-14016930D02*
X12431386Y-14026454D01*
X12431386Y-14026454D02*
X12412338Y-14035978D01*
X12412338Y-14035978D02*
X12374243Y-14035978D01*
X12374243Y-14035978D02*
X12355195Y-14045502D01*
X12355195Y-14045502D02*
X12345671Y-14055026D01*
X12345671Y-14055026D02*
X12336148Y-14074073D01*
X12336148Y-14074073D02*
X12336148Y-14112168D01*
X12336148Y-14112168D02*
X12345671Y-14131216D01*
X12345671Y-14131216D02*
X12355195Y-14140740D01*
X12355195Y-14140740D02*
X12374243Y-14150264D01*
X12374243Y-14150264D02*
X12412338Y-14150264D01*
X12412338Y-14150264D02*
X12431386Y-14140740D01*
X12431386Y-14140740D02*
X12440910Y-14131216D01*
X12440910Y-14131216D02*
X12450433Y-14112168D01*
X12450433Y-14112168D02*
X12450433Y-14074073D01*
X12450433Y-14074073D02*
X12440910Y-14055026D01*
X12440910Y-14055026D02*
X12431386Y-14045502D01*
X12431386Y-14045502D02*
X12412338Y-14035978D01*
X12688529Y-14150264D02*
X12688529Y-13950264D01*
X12774243Y-14150264D02*
X12774243Y-14045502D01*
X12774243Y-14045502D02*
X12764719Y-14026454D01*
X12764719Y-14026454D02*
X12745672Y-14016930D01*
X12745672Y-14016930D02*
X12717100Y-14016930D01*
X12717100Y-14016930D02*
X12698052Y-14026454D01*
X12698052Y-14026454D02*
X12688529Y-14035978D01*
X12898052Y-14150264D02*
X12879005Y-14140740D01*
X12879005Y-14140740D02*
X12869481Y-14131216D01*
X12869481Y-14131216D02*
X12859957Y-14112168D01*
X12859957Y-14112168D02*
X12859957Y-14055026D01*
X12859957Y-14055026D02*
X12869481Y-14035978D01*
X12869481Y-14035978D02*
X12879005Y-14026454D01*
X12879005Y-14026454D02*
X12898052Y-14016930D01*
X12898052Y-14016930D02*
X12926624Y-14016930D01*
X12926624Y-14016930D02*
X12945672Y-14026454D01*
X12945672Y-14026454D02*
X12955195Y-14035978D01*
X12955195Y-14035978D02*
X12964719Y-14055026D01*
X12964719Y-14055026D02*
X12964719Y-14112168D01*
X12964719Y-14112168D02*
X12955195Y-14131216D01*
X12955195Y-14131216D02*
X12945672Y-14140740D01*
X12945672Y-14140740D02*
X12926624Y-14150264D01*
X12926624Y-14150264D02*
X12898052Y-14150264D01*
X13079005Y-14150264D02*
X13059957Y-14140740D01*
X13059957Y-14140740D02*
X13050433Y-14121692D01*
X13050433Y-14121692D02*
X13050433Y-13950264D01*
X13231386Y-14140740D02*
X13212338Y-14150264D01*
X13212338Y-14150264D02*
X13174243Y-14150264D01*
X13174243Y-14150264D02*
X13155195Y-14140740D01*
X13155195Y-14140740D02*
X13145672Y-14121692D01*
X13145672Y-14121692D02*
X13145672Y-14045502D01*
X13145672Y-14045502D02*
X13155195Y-14026454D01*
X13155195Y-14026454D02*
X13174243Y-14016930D01*
X13174243Y-14016930D02*
X13212338Y-14016930D01*
X13212338Y-14016930D02*
X13231386Y-14026454D01*
X13231386Y-14026454D02*
X13240910Y-14045502D01*
X13240910Y-14045502D02*
X13240910Y-14064549D01*
X13240910Y-14064549D02*
X13145672Y-14083597D01*
X13317100Y-14140740D02*
X13336148Y-14150264D01*
X13336148Y-14150264D02*
X13374243Y-14150264D01*
X13374243Y-14150264D02*
X13393291Y-14140740D01*
X13393291Y-14140740D02*
X13402814Y-14121692D01*
X13402814Y-14121692D02*
X13402814Y-14112168D01*
X13402814Y-14112168D02*
X13393291Y-14093121D01*
X13393291Y-14093121D02*
X13374243Y-14083597D01*
X13374243Y-14083597D02*
X13345672Y-14083597D01*
X13345672Y-14083597D02*
X13326624Y-14074073D01*
X13326624Y-14074073D02*
X13317100Y-14055026D01*
X13317100Y-14055026D02*
X13317100Y-14045502D01*
X13317100Y-14045502D02*
X13326624Y-14026454D01*
X13326624Y-14026454D02*
X13345672Y-14016930D01*
X13345672Y-14016930D02*
X13374243Y-14016930D01*
X13374243Y-14016930D02*
X13393291Y-14026454D01*
X13469481Y-14226454D02*
X13479005Y-14216930D01*
X13479005Y-14216930D02*
X13498053Y-14188359D01*
X13498053Y-14188359D02*
X13507576Y-14169311D01*
X13507576Y-14169311D02*
X13517100Y-14140740D01*
X13517100Y-14140740D02*
X13526624Y-14093121D01*
X13526624Y-14093121D02*
X13526624Y-14055026D01*
X13526624Y-14055026D02*
X13517100Y-14007407D01*
X13517100Y-14007407D02*
X13507576Y-13978835D01*
X13507576Y-13978835D02*
X13498053Y-13959788D01*
X13498053Y-13959788D02*
X13479005Y-13931216D01*
X13479005Y-13931216D02*
X13469481Y-13921692D01*
X13831386Y-14226454D02*
X13821862Y-14216930D01*
X13821862Y-14216930D02*
X13802814Y-14188359D01*
X13802814Y-14188359D02*
X13793291Y-14169311D01*
X13793291Y-14169311D02*
X13783767Y-14140740D01*
X13783767Y-14140740D02*
X13774243Y-14093121D01*
X13774243Y-14093121D02*
X13774243Y-14055026D01*
X13774243Y-14055026D02*
X13783767Y-14007407D01*
X13783767Y-14007407D02*
X13793291Y-13978835D01*
X13793291Y-13978835D02*
X13802814Y-13959788D01*
X13802814Y-13959788D02*
X13821862Y-13931216D01*
X13821862Y-13931216D02*
X13831386Y-13921692D01*
X13907576Y-14016930D02*
X13907576Y-14150264D01*
X13907576Y-14035978D02*
X13917100Y-14026454D01*
X13917100Y-14026454D02*
X13936148Y-14016930D01*
X13936148Y-14016930D02*
X13964719Y-14016930D01*
X13964719Y-14016930D02*
X13983767Y-14026454D01*
X13983767Y-14026454D02*
X13993291Y-14045502D01*
X13993291Y-14045502D02*
X13993291Y-14150264D01*
X14117100Y-14150264D02*
X14098053Y-14140740D01*
X14098053Y-14140740D02*
X14088529Y-14131216D01*
X14088529Y-14131216D02*
X14079005Y-14112168D01*
X14079005Y-14112168D02*
X14079005Y-14055026D01*
X14079005Y-14055026D02*
X14088529Y-14035978D01*
X14088529Y-14035978D02*
X14098053Y-14026454D01*
X14098053Y-14026454D02*
X14117100Y-14016930D01*
X14117100Y-14016930D02*
X14145672Y-14016930D01*
X14145672Y-14016930D02*
X14164719Y-14026454D01*
X14164719Y-14026454D02*
X14174243Y-14035978D01*
X14174243Y-14035978D02*
X14183767Y-14055026D01*
X14183767Y-14055026D02*
X14183767Y-14112168D01*
X14183767Y-14112168D02*
X14174243Y-14131216D01*
X14174243Y-14131216D02*
X14164719Y-14140740D01*
X14164719Y-14140740D02*
X14145672Y-14150264D01*
X14145672Y-14150264D02*
X14117100Y-14150264D01*
X14240910Y-14016930D02*
X14317100Y-14016930D01*
X14269481Y-13950264D02*
X14269481Y-14121692D01*
X14269481Y-14121692D02*
X14279005Y-14140740D01*
X14279005Y-14140740D02*
X14298053Y-14150264D01*
X14298053Y-14150264D02*
X14317100Y-14150264D01*
X14536148Y-14016930D02*
X14536148Y-14216930D01*
X14536148Y-14026454D02*
X14555195Y-14016930D01*
X14555195Y-14016930D02*
X14593291Y-14016930D01*
X14593291Y-14016930D02*
X14612338Y-14026454D01*
X14612338Y-14026454D02*
X14621862Y-14035978D01*
X14621862Y-14035978D02*
X14631386Y-14055026D01*
X14631386Y-14055026D02*
X14631386Y-14112168D01*
X14631386Y-14112168D02*
X14621862Y-14131216D01*
X14621862Y-14131216D02*
X14612338Y-14140740D01*
X14612338Y-14140740D02*
X14593291Y-14150264D01*
X14593291Y-14150264D02*
X14555195Y-14150264D01*
X14555195Y-14150264D02*
X14536148Y-14140740D01*
X14745672Y-14150264D02*
X14726624Y-14140740D01*
X14726624Y-14140740D02*
X14717100Y-14121692D01*
X14717100Y-14121692D02*
X14717100Y-13950264D01*
X14907576Y-14150264D02*
X14907576Y-14045502D01*
X14907576Y-14045502D02*
X14898053Y-14026454D01*
X14898053Y-14026454D02*
X14879005Y-14016930D01*
X14879005Y-14016930D02*
X14840910Y-14016930D01*
X14840910Y-14016930D02*
X14821862Y-14026454D01*
X14907576Y-14140740D02*
X14888529Y-14150264D01*
X14888529Y-14150264D02*
X14840910Y-14150264D01*
X14840910Y-14150264D02*
X14821862Y-14140740D01*
X14821862Y-14140740D02*
X14812338Y-14121692D01*
X14812338Y-14121692D02*
X14812338Y-14102645D01*
X14812338Y-14102645D02*
X14821862Y-14083597D01*
X14821862Y-14083597D02*
X14840910Y-14074073D01*
X14840910Y-14074073D02*
X14888529Y-14074073D01*
X14888529Y-14074073D02*
X14907576Y-14064549D01*
X14974243Y-14016930D02*
X15050434Y-14016930D01*
X15002815Y-13950264D02*
X15002815Y-14121692D01*
X15002815Y-14121692D02*
X15012338Y-14140740D01*
X15012338Y-14140740D02*
X15031386Y-14150264D01*
X15031386Y-14150264D02*
X15050434Y-14150264D01*
X15193291Y-14140740D02*
X15174243Y-14150264D01*
X15174243Y-14150264D02*
X15136148Y-14150264D01*
X15136148Y-14150264D02*
X15117100Y-14140740D01*
X15117100Y-14140740D02*
X15107576Y-14121692D01*
X15107576Y-14121692D02*
X15107576Y-14045502D01*
X15107576Y-14045502D02*
X15117100Y-14026454D01*
X15117100Y-14026454D02*
X15136148Y-14016930D01*
X15136148Y-14016930D02*
X15174243Y-14016930D01*
X15174243Y-14016930D02*
X15193291Y-14026454D01*
X15193291Y-14026454D02*
X15202815Y-14045502D01*
X15202815Y-14045502D02*
X15202815Y-14064549D01*
X15202815Y-14064549D02*
X15107576Y-14083597D01*
X15374243Y-14150264D02*
X15374243Y-13950264D01*
X15374243Y-14140740D02*
X15355196Y-14150264D01*
X15355196Y-14150264D02*
X15317100Y-14150264D01*
X15317100Y-14150264D02*
X15298053Y-14140740D01*
X15298053Y-14140740D02*
X15288529Y-14131216D01*
X15288529Y-14131216D02*
X15279005Y-14112168D01*
X15279005Y-14112168D02*
X15279005Y-14055026D01*
X15279005Y-14055026D02*
X15288529Y-14035978D01*
X15288529Y-14035978D02*
X15298053Y-14026454D01*
X15298053Y-14026454D02*
X15317100Y-14016930D01*
X15317100Y-14016930D02*
X15355196Y-14016930D01*
X15355196Y-14016930D02*
X15374243Y-14026454D01*
X15450434Y-14226454D02*
X15459957Y-14216930D01*
X15459957Y-14216930D02*
X15479005Y-14188359D01*
X15479005Y-14188359D02*
X15488529Y-14169311D01*
X15488529Y-14169311D02*
X15498053Y-14140740D01*
X15498053Y-14140740D02*
X15507576Y-14093121D01*
X15507576Y-14093121D02*
X15507576Y-14055026D01*
X15507576Y-14055026D02*
X15498053Y-14007407D01*
X15498053Y-14007407D02*
X15488529Y-13978835D01*
X15488529Y-13978835D02*
X15479005Y-13959788D01*
X15479005Y-13959788D02*
X15459957Y-13931216D01*
X15459957Y-13931216D02*
X15450434Y-13921692D01*
M02*
